<?xml version="1.0" encoding="UTF-8"?>
<svg version="1.1" xmlns="http://www.w3.org/2000/svg" width="885" height="885">
<path d="M0 0 C96.96314264 -2.51339766 195.53840774 29.01909813 275.70117188 90.06201172 C276.23919434 90.47386719 276.7772168 90.88572266 277.33154297 91.31005859 C298.43475602 107.49182472 319.49159847 125.46173284 336.75195312 145.77294922 C338.33422404 147.63108701 339.93706828 149.46321722 341.55664062 151.28857422 C363.86059983 176.52941423 382.75683847 204.42204963 398.70117188 234.06201172 C399.61141113 235.72828613 399.61141113 235.72828613 400.54003906 237.42822266 C405.23187035 246.06048367 409.52283658 254.80480629 413.45117188 263.81201172 C413.74631683 264.48776245 414.04146179 265.16351318 414.34555054 265.85974121 C434.15579572 311.49182595 445.3857068 359.5511246 449.70117188 409.06201172 C449.77319824 409.87573242 449.84522461 410.68945312 449.91943359 411.52783203 C457.61513442 503.42715597 433.49298821 600.46765834 383.70117188 678.06201172 C383.22115723 678.81305176 382.74114258 679.5640918 382.24658203 680.33789062 C372.20364863 695.95017848 361.40509848 711.1148728 349.22460938 725.13623047 C346.75435489 728.00034906 344.37919416 730.92366395 342.01367188 733.87451172 C338.74723047 737.89205997 335.30906439 741.56788822 331.59570312 745.17138672 C329.71877345 747.04444644 327.98795618 748.98586475 326.26367188 750.99951172 C320.6006651 757.56345139 314.42317393 763.56310248 307.84179688 769.19873047 C305.36930701 771.35087949 302.9784583 773.58181891 300.57617188 775.81201172 C294.75766441 781.11617598 288.63623048 785.95475445 282.39501953 790.74902344 C280.8717675 791.92977429 279.36904669 793.13689894 277.86914062 794.34716797 C260.47679571 808.21821733 241.2404429 820.46630339 221.70117188 831.06201172 C220.80479004 831.54863281 219.9084082 832.03525391 218.98486328 832.53662109 C174.18735983 856.69191255 126.28723204 873.08102326 75.95117188 880.81201172 C74.66227051 881.01084961 73.37336914 881.2096875 72.04541016 881.41455078 C50.76171755 884.52871637 29.70397164 885.43575509 8.20117188 885.37451172 C6.86082979 885.37258857 5.52048758 885.37074804 4.18014526 885.36898804 C-14.8116383 885.33272763 -33.49953227 884.99435022 -52.29882812 882.06201172 C-53.4817041 881.88508789 -54.66458008 881.70816406 -55.88330078 881.52587891 C-137.92405195 869.04352575 -213.58836205 835.14632177 -277.29882812 782.06201172 C-278.30961426 781.2236377 -279.32040039 780.38526367 -280.36181641 779.52148438 C-288.9252029 772.34381583 -296.92731255 764.71565366 -304.7878418 756.77880859 C-306.7537753 754.79440058 -308.72781293 752.81833032 -310.703125 750.84326172 C-316.77473323 744.75515455 -322.79150005 738.67338797 -328.29882812 732.06201172 C-328.83467529 731.43294922 -329.37052246 730.80388672 -329.92260742 730.15576172 C-338.9524709 719.52273673 -347.34300556 708.51809768 -355.29882812 697.06201172 C-356.05244629 695.97799072 -356.05244629 695.97799072 -356.82128906 694.87207031 C-403.95435093 626.62572732 -434.17658011 542.45369881 -434.50195312 458.94091797 C-434.50896744 457.73041275 -434.51598175 456.51990753 -434.52320862 455.27272034 C-434.54061012 451.38994583 -434.5470604 447.50732378 -434.54882812 443.62451172 C-434.54926998 442.96323021 -434.54971184 442.3019487 -434.55016708 441.62062836 C-434.55706836 421.93036419 -434.31505226 402.5600616 -431.29882812 383.06201172 C-431.12722168 381.89895508 -430.95561523 380.73589844 -430.77880859 379.53759766 C-424.63529489 338.61378072 -413.63886744 298.68311467 -396.29882812 261.06201172 C-395.5638208 259.46196289 -395.5638208 259.46196289 -394.81396484 257.82958984 C-379.45455533 224.63233186 -360.55337186 193.36630915 -337.29882812 165.06201172 C-336.84942871 164.51496582 -336.4000293 163.96791992 -335.93701172 163.40429688 C-329.75630466 155.92123438 -323.32104152 148.69922586 -316.71240234 141.59326172 C-315.26102261 140.02105901 -313.82728143 138.43420479 -312.39648438 136.84326172 C-305.88693757 129.63634023 -299.06581896 122.94269285 -291.84082031 116.45556641 C-290.38909129 115.14358584 -288.95654186 113.81047157 -287.52539062 112.47607422 C-280.96554399 106.37791767 -274.08843527 100.82570178 -266.99267578 95.375 C-265.46942375 94.19424915 -263.96670294 92.9871245 -262.46679688 91.77685547 C-245.06785937 77.90054827 -225.83224828 65.68301092 -206.29882812 55.06201172 C-205.43966797 54.59134277 -204.58050781 54.12067383 -203.6953125 53.63574219 C-140.68335936 19.3179419 -71.57174378 1.93067363 0 0 Z " fill="#FEFEFE" transform="translate(434.298828125,-0.06201171875)"/>
<path d="M0 0 C96.96314264 -2.51339766 195.53840774 29.01909813 275.70117188 90.06201172 C276.23919434 90.47386719 276.7772168 90.88572266 277.33154297 91.31005859 C298.43475602 107.49182472 319.49159847 125.46173284 336.75195312 145.77294922 C338.33422404 147.63108701 339.93706828 149.46321722 341.55664062 151.28857422 C363.86059983 176.52941423 382.75683847 204.42204963 398.70117188 234.06201172 C399.61141113 235.72828613 399.61141113 235.72828613 400.54003906 237.42822266 C405.23187035 246.06048367 409.52283658 254.80480629 413.45117188 263.81201172 C413.74631683 264.48776245 414.04146179 265.16351318 414.34555054 265.85974121 C434.15579572 311.49182595 445.3857068 359.5511246 449.70117188 409.06201172 C449.77319824 409.87573242 449.84522461 410.68945312 449.91943359 411.52783203 C457.61513442 503.42715597 433.49298821 600.46765834 383.70117188 678.06201172 C383.22115723 678.81305176 382.74114258 679.5640918 382.24658203 680.33789062 C372.20364863 695.95017848 361.40509848 711.1148728 349.22460938 725.13623047 C346.75435489 728.00034906 344.37919416 730.92366395 342.01367188 733.87451172 C338.74723047 737.89205997 335.30906439 741.56788822 331.59570312 745.17138672 C329.71877345 747.04444644 327.98795618 748.98586475 326.26367188 750.99951172 C320.6006651 757.56345139 314.42317393 763.56310248 307.84179688 769.19873047 C305.36930701 771.35087949 302.9784583 773.58181891 300.57617188 775.81201172 C294.75766441 781.11617598 288.63623048 785.95475445 282.39501953 790.74902344 C280.8717675 791.92977429 279.36904669 793.13689894 277.86914062 794.34716797 C260.47679571 808.21821733 241.2404429 820.46630339 221.70117188 831.06201172 C220.80479004 831.54863281 219.9084082 832.03525391 218.98486328 832.53662109 C174.18735983 856.69191255 126.28723204 873.08102326 75.95117188 880.81201172 C74.66227051 881.01084961 73.37336914 881.2096875 72.04541016 881.41455078 C50.76171755 884.52871637 29.70397164 885.43575509 8.20117188 885.37451172 C6.86082979 885.37258857 5.52048758 885.37074804 4.18014526 885.36898804 C-14.8116383 885.33272763 -33.49953227 884.99435022 -52.29882812 882.06201172 C-53.4817041 881.88508789 -54.66458008 881.70816406 -55.88330078 881.52587891 C-137.92405195 869.04352575 -213.58836205 835.14632177 -277.29882812 782.06201172 C-278.30961426 781.2236377 -279.32040039 780.38526367 -280.36181641 779.52148438 C-288.9252029 772.34381583 -296.92731255 764.71565366 -304.7878418 756.77880859 C-306.7537753 754.79440058 -308.72781293 752.81833032 -310.703125 750.84326172 C-316.77473323 744.75515455 -322.79150005 738.67338797 -328.29882812 732.06201172 C-328.83467529 731.43294922 -329.37052246 730.80388672 -329.92260742 730.15576172 C-338.9524709 719.52273673 -347.34300556 708.51809768 -355.29882812 697.06201172 C-356.05244629 695.97799072 -356.05244629 695.97799072 -356.82128906 694.87207031 C-403.95435093 626.62572732 -434.17658011 542.45369881 -434.50195312 458.94091797 C-434.50896744 457.73041275 -434.51598175 456.51990753 -434.52320862 455.27272034 C-434.54061012 451.38994583 -434.5470604 447.50732378 -434.54882812 443.62451172 C-434.54926998 442.96323021 -434.54971184 442.3019487 -434.55016708 441.62062836 C-434.55706836 421.93036419 -434.31505226 402.5600616 -431.29882812 383.06201172 C-431.12722168 381.89895508 -430.95561523 380.73589844 -430.77880859 379.53759766 C-424.63529489 338.61378072 -413.63886744 298.68311467 -396.29882812 261.06201172 C-395.5638208 259.46196289 -395.5638208 259.46196289 -394.81396484 257.82958984 C-379.45455533 224.63233186 -360.55337186 193.36630915 -337.29882812 165.06201172 C-336.84942871 164.51496582 -336.4000293 163.96791992 -335.93701172 163.40429688 C-329.75630466 155.92123438 -323.32104152 148.69922586 -316.71240234 141.59326172 C-315.26102261 140.02105901 -313.82728143 138.43420479 -312.39648438 136.84326172 C-305.88693757 129.63634023 -299.06581896 122.94269285 -291.84082031 116.45556641 C-290.38909129 115.14358584 -288.95654186 113.81047157 -287.52539062 112.47607422 C-280.96554399 106.37791767 -274.08843527 100.82570178 -266.99267578 95.375 C-265.46942375 94.19424915 -263.96670294 92.9871245 -262.46679688 91.77685547 C-245.06785937 77.90054827 -225.83224828 65.68301092 -206.29882812 55.06201172 C-205.43966797 54.59134277 -204.58050781 54.12067383 -203.6953125 53.63574219 C-140.68335936 19.3179419 -71.57174378 1.93067363 0 0 Z M-57.29882812 127.06201172 C-58.64886556 127.3287677 -59.99913514 127.59435096 -61.34960938 127.85888672 C-115.02302131 138.69932952 -166.73305823 165.54168975 -206.85742188 202.80419922 C-208.94571235 204.73545025 -211.06974347 206.59519232 -213.23632812 208.43701172 C-221.5198847 215.64677393 -229.29159153 223.61128439 -236.29882812 232.06201172 C-236.74806641 232.59745605 -237.19730469 233.13290039 -237.66015625 233.68457031 C-286.84872254 292.43758004 -314.62237155 365.76238052 -314.48632812 442.49951172 C-314.4850592 443.24378418 -314.48379028 443.98805664 -314.48248291 444.75488281 C-314.42130354 463.70531805 -312.65506313 481.95941935 -309.42382812 500.62451172 C-309.30094421 501.34026367 -309.1780603 502.05601562 -309.05145264 502.79345703 C-307.37710626 512.43058972 -305.15941184 521.69795045 -302.29882812 531.06201172 C-301.908552 532.40288048 -301.51902642 533.74396839 -301.13085938 535.08544922 C-287.22823945 580.78831472 -264.41642325 622.5939497 -232.29882812 658.06201172 C-231.42291016 659.03050049 -231.42291016 659.03050049 -230.52929688 660.01855469 C-194.07816026 700.08602775 -148.54795091 730.2771147 -97.29882812 748.06201172 C-96.52442383 748.33207031 -95.75001953 748.60212891 -94.95214844 748.88037109 C-14.07337957 776.67494164 75.36709941 768.77753252 151.77856445 731.59667969 C189.52885871 712.82807008 225.6550498 685.63659962 252.70117188 653.06201172 C253.14509277 652.53720215 253.58901367 652.01239258 254.04638672 651.47167969 C279.2783443 621.58979782 298.28247543 587.67165317 311.640625 550.96948242 C312.3296644 549.08049295 313.03083735 547.19586959 313.74609375 545.31665039 C316.38287395 538.32045265 318.39446881 531.25190742 320.20117188 523.99951172 C320.5030542 522.7879541 320.80493652 521.57639648 321.1159668 520.328125 C324.09182166 508.01727307 326.12423024 495.62245118 327.70117188 483.06201172 C327.78763977 482.40939362 327.87410767 481.75677551 327.9631958 481.0843811 C329.52698817 469.18948232 330.02660035 457.49004273 329.95117188 445.49951172 C329.9484024 444.63137848 329.94563293 443.76324524 329.94277954 442.86880493 C329.88938602 428.53289219 329.41138962 414.30847349 327.70117188 400.06201172 C327.60465332 399.24684082 327.50813477 398.43166992 327.40869141 397.59179688 C322.72355813 360.01071964 309.82434249 323.17384231 291.70117188 290.06201172 C290.96142368 288.68710041 290.22183329 287.31210417 289.48242188 285.93701172 C281.22388869 270.75118276 271.50001525 256.54713454 260.70117188 243.06201172 C259.97542969 242.14291016 259.2496875 241.22380859 258.50195312 240.27685547 C245.01233467 223.44510533 229.71919236 207.32188601 212.70117188 194.06201172 C211.57376353 193.13655242 210.44891721 192.2079663 209.32617188 191.27685547 C174.25689962 162.35851359 133.1479531 143.55155315 89.70117188 131.06201172 C88.94819824 130.84174316 88.19522461 130.62147461 87.41943359 130.39453125 C74.44503454 126.64735531 61.06000089 124.84951881 47.70117188 123.06201172 C46.37666016 122.87977051 46.37666016 122.87977051 45.02539062 122.69384766 C11.37830531 118.25614152 -24.18086368 119.94287078 -57.29882812 127.06201172 Z " fill="#91A0C3" transform="translate(434.298828125,-0.06201171875)"/>
<path d="M0 0 C1.46979891 0.00138269 1.46979891 0.00138269 2.96929073 0.00279331 C4.64997646 0.00073132 4.64997646 0.00073132 6.36461544 -0.00137234 C7.60466839 0.00222294 8.84472134 0.00581821 10.12235165 0.00952244 C12.06840801 0.0093034 12.06840801 0.0093034 14.05377865 0.00907993 C17.62180117 0.00879197 21.18979036 0.01468851 24.75780511 0.02165389 C28.48274808 0.02788762 32.20769174 0.02849124 35.93263912 0.0296793 C42.99101551 0.03279256 50.04937648 0.04100587 57.10774606 0.05102879 C66.64243135 0.06427538 76.17712082 0.06968988 85.71181297 0.07553101 C100.7411675 0.08494577 115.77048949 0.10486472 130.79984188 0.12304783 C130.79984188 29.16304783 130.79984188 58.20304783 130.79984188 88.12304783 C123.86984188 88.12304783 116.93984188 88.12304783 109.79984188 88.12304783 C109.74651226 118.56154435 109.73073676 148.99976701 109.77350152 179.43827006 C109.77851605 183.03306541 109.78318292 186.62786112 109.78763485 190.2226572 C109.78852698 190.93830627 109.78941911 191.65395533 109.79033828 192.39129072 C109.80394849 203.97397643 109.78940349 215.55646395 109.76442492 227.13912338 C109.73941593 239.02699598 109.74472971 250.91457717 109.77810097 262.80243063 C109.79597439 269.47852765 109.798915 276.154113 109.7688055 282.83018589 C109.74090484 289.11448061 109.75041623 295.39760985 109.78857899 301.68183994 C109.79599533 303.98765916 109.78976183 306.29356909 109.76882267 308.59930515 C109.74225149 311.75082192 109.76497527 314.89833305 109.79984188 318.04968357 C109.7804301 318.96020843 109.76101831 319.87073329 109.7410183 320.80884981 C109.86222917 326.12854636 110.85287827 328.70987271 114.65531063 332.51435184 C116.0346694 333.71971718 117.41610578 334.92271012 118.79984188 336.12304783 C119.92667629 337.37382583 121.0346869 338.6421565 122.11234188 339.93554783 C125.02234658 343.3250041 128.12144513 346.4875589 131.29984188 349.62304783 C134.98856817 353.2622444 138.47866405 356.99227391 141.83499813 360.93945408 C145.00934517 364.46720755 148.40812083 367.77163018 151.80155087 371.08764744 C155.69772337 374.91881081 155.69772337 374.91881081 156.79984188 377.12304783 C169.72605318 377.44863685 182.65127641 377.69678306 195.58076572 377.84841824 C201.58593703 377.92123037 207.58828674 378.01983302 213.59183407 378.17920017 C219.39522656 378.33227507 225.19592115 378.41521802 231.00117779 378.45132923 C233.20616138 378.47703155 235.41101097 378.52722751 237.61483288 378.60326862 C252.08700912 379.19897589 252.08700912 379.19897589 264.21537495 372.22297955 C266.9508452 369.33219171 269.40032723 366.29369688 271.79984188 363.12304783 C273.01896237 361.71843165 274.24461594 360.31932296 275.48734188 358.93554783 C275.99652157 358.33355564 276.50570126 357.73156345 277.03031063 357.11132908 C279.79639853 354.00329654 282.78430575 351.11810028 285.74491024 348.19751072 C288.9873166 344.9819705 292.04596532 341.67439447 294.97171688 338.16992283 C296.79984188 336.12304783 296.79984188 336.12304783 298.47869116 334.74449104 C302.09345272 331.625429 304.22538445 329.34192917 304.67679405 324.48230934 C304.71330032 322.68658048 304.71175016 320.88982226 304.67958736 319.09401035 C304.68965189 318.09980971 304.69971642 317.10560906 304.71008593 316.08128113 C304.73527939 312.75793515 304.71072357 309.43685025 304.68631649 306.11352634 C304.69420608 303.72827591 304.70516755 301.34303395 304.7189703 298.9578104 C304.74472679 293.15858381 304.7384944 287.36002977 304.71809708 281.56079627 C304.69608613 274.81079406 304.713609 268.06106837 304.73353953 261.31108081 C304.76803471 249.27446923 304.77141894 237.23805914 304.75516415 225.20141697 C304.73944449 213.51158743 304.73842304 201.82190839 304.75711727 190.13208103 C304.7582652 189.41106717 304.75941313 188.6900533 304.76059585 187.94719053 C304.76644541 184.3299393 304.77258338 180.71268863 304.77886474 177.09543812 C304.83057098 147.10458815 304.82983232 117.11393434 304.79984188 87.12304783 C297.86984188 87.12304783 290.93984188 87.12304783 283.79984188 87.12304783 C283.79984188 58.74304783 283.79984188 30.36304783 283.79984188 1.12304783 C327.68984188 1.12304783 371.57984188 1.12304783 416.79984188 1.12304783 C416.79984188 29.50304783 416.79984188 57.88304783 416.79984188 87.12304783 C409.86984188 87.12304783 402.93984188 87.12304783 395.79984188 87.12304783 C395.8099816 88.58172181 395.82012133 90.04039579 395.83056831 91.54327202 C396.06894033 126.18976864 396.25025459 160.83613259 396.3615605 195.48327624 C396.37531784 199.75016443 396.38955543 204.01705089 396.40408993 208.2839365 C396.40697534 209.1333763 396.40986076 209.98281609 396.41283361 210.85799649 C396.46066411 224.60190319 396.54737477 238.34530243 396.64852264 252.08890835 C396.75148595 266.19713462 396.81250854 280.3050956 396.83481532 294.41368216 C396.84988949 303.1158026 396.8974485 311.81648862 396.98692302 320.51816734 C397.04518932 326.48991101 397.06261675 332.46091607 397.04835703 338.43292318 C397.04132831 341.87619682 397.05189068 345.31696954 397.1111021 348.75979519 C397.44652018 371.61249082 397.44652018 371.61249082 391.95432931 377.70416898 C389.72240861 379.74086472 387.29606502 381.42717929 384.79984188 383.12304783 C382.76899444 385.22980233 382.76899444 385.22980233 381.17484188 387.24804783 C377.971377 391.0033057 374.50361664 394.43556783 370.99124813 397.90039158 C368.3788312 400.55006222 365.96681567 403.33477586 363.54593563 406.15820408 C361.07502799 408.93866615 358.41817248 411.51423001 355.76859188 414.12304783 C353.85997733 416.06195785 352.07273636 418.06004334 350.29984188 420.12304783 C347.903076 422.91201176 345.42024797 425.54295568 342.79984188 428.12304783 C340.20002005 430.68294917 337.7371579 433.29084323 335.36234188 436.06054783 C332.08853535 439.87128846 328.56620217 443.37382947 324.99124813 446.90039158 C322.3788312 449.55006222 319.96681567 452.33477586 317.54593563 455.15820408 C315.14775188 457.85683144 312.58372664 460.36619358 309.98734188 462.87304783 C307.80212138 464.93705828 307.80212138 464.93705828 306.68249416 467.05638218 C304.0420416 471.08653982 301.98464938 472.87588004 297.19518185 473.87503147 C292.45183724 474.27489198 287.70600001 474.20531466 282.95023251 474.15820408 C281.1181939 474.16905122 279.28617276 474.18329921 277.45418453 474.20068455 C272.48897489 474.23710479 267.52509743 474.22303797 262.559865 474.19765186 C257.35942576 474.17737129 252.15909917 474.19618884 246.95865536 474.20874119 C238.22598485 474.22328827 229.49385591 474.204135 220.76126766 474.16601658 C210.67077404 474.12247892 200.58157357 474.13658218 190.49111128 474.18062782 C181.8216056 474.21695355 173.15248882 474.22204424 164.48293161 474.20111847 C159.30761651 474.18865781 154.13290889 474.18695037 148.95763302 474.21341038 C144.09134484 474.23655351 139.22672064 474.22043507 134.36061192 474.17425632 C132.57686086 474.16369509 130.79296929 474.16668838 129.00927448 474.18435764 C115.52669018 474.3055836 115.52669018 474.3055836 111.24767208 471.37533665 C109.4797162 469.3733195 108.15552604 467.4150683 106.79984188 465.12304783 C105.88514697 464.12286995 104.93819833 463.15086929 103.95609188 462.21679783 C99.33076134 457.70029859 94.87086924 453.13906069 90.67484188 448.21679783 C88.3163894 445.58319256 85.81538785 443.10478269 83.29984188 440.62304783 C79.58138683 436.95457201 76.06315993 433.19155554 72.67484188 429.21679783 C70.3163894 426.58319256 67.81538785 424.10478269 65.29984188 421.62304783 C61.58138683 417.95457201 58.06315993 414.19155554 54.67484188 410.21679783 C52.3163894 407.58319256 49.81538785 405.10478269 47.29984188 402.62304783 C43.58402373 398.95717347 40.0672145 395.1977896 36.68265438 391.22461033 C33.43571018 387.6004278 29.92731675 384.23327399 26.44827938 380.83398533 C25.57429501 379.93937595 24.70031063 379.04476658 23.79984188 378.12304783 C22.9326191 377.3151726 22.06539633 376.50729736 21.17189407 375.67494106 C17.51798085 371.20545423 18.1249078 366.10201869 18.1985693 360.58181858 C18.19429717 359.41287961 18.19002505 358.24394064 18.18562347 357.03957927 C18.17882004 353.80331213 18.19441143 350.56805033 18.21951377 347.33190203 C18.24113156 343.83913307 18.23379743 340.34640992 18.2300024 336.85359287 C18.22738223 330.80489246 18.24305279 324.75646199 18.2711916 318.70782948 C18.31184872 309.96259949 18.32485106 301.21749985 18.33113156 292.4721856 C18.34207128 278.28314123 18.37533671 264.09424068 18.42264462 249.90527439 C18.46854855 236.12305514 18.50393637 222.34087498 18.52518368 208.5585947 C18.5264973 207.7088773 18.52781091 206.85915991 18.52916434 205.9836935 C18.53568958 201.72085724 18.54200811 197.45802071 18.54822385 193.19518399 C18.60004685 157.83769857 18.68948061 122.4803961 18.79984188 87.12304783 C11.53984188 87.12304783 4.27984188 87.12304783 -3.20015812 87.12304783 C-3.22270848 75.9273118 -3.24107282 64.73159073 -3.25197029 53.53583717 C-3.25719928 48.33776668 -3.26429722 43.13971247 -3.27559757 37.94165134 C-3.28642588 32.92962514 -3.29243483 27.91761465 -3.29503536 22.90557766 C-3.29688971 20.98892501 -3.30051052 19.07227326 -3.30588818 17.15562725 C-3.31309787 14.4807671 -3.31414909 11.80597269 -3.31368351 9.13110447 C-3.31727879 8.33053623 -3.32087406 7.52996799 -3.32457829 6.70514011 C-3.31221584 0.18524167 -3.31221584 0.18524167 0 0 Z " fill="#AA6D33" transform="translate(233.20015811920166,242.87695217132568)"/>
<path d="M0 0 C2.79579285 1.27631196 4.84633334 2.59667708 7.01545715 4.76821899 C7.86677467 5.61324478 7.86677467 5.61324478 8.73529053 6.4753418 C9.34576233 7.09143311 9.95623413 7.70752441 10.58520508 8.34228516 C11.56407936 9.31831192 11.56407936 9.31831192 12.56272888 10.3140564 C14.71991365 12.46753559 16.86980908 14.62813565 19.01953125 16.7890625 C20.52125667 18.29198064 22.02335261 19.79452863 23.52580261 21.29672241 C26.67696634 24.44945098 29.8247412 27.60551165 32.9699707 30.76416016 C36.98621277 34.79732616 41.00893934 38.82394489 45.03403187 42.84827614 C48.13913355 45.95365098 51.24161229 49.06163526 54.34323692 52.17048264 C55.82449921 53.65491119 57.3063539 55.13874887 58.7888279 56.62196732 C60.87060695 58.70593548 62.94904821 60.79317751 65.02661133 62.88134766 C65.63101044 63.48529358 66.23540955 64.0892395 66.85812378 64.71148682 C70.55324003 68.43396329 74.05569814 72.2800166 77.47625256 76.25650597 C79.36734967 78.42032684 81.37405737 80.43841426 83.4375 82.4375 C84.64316121 83.60655669 85.83691398 84.78857794 87 86 C87 86.33 87 86.66 87 87 C71.82 87 56.64 87 41 87 C41.73605469 92.39472656 42.47210938 97.78945313 43.23046875 103.34765625 C43.70915312 106.86130532 44.18774387 110.37496668 44.66601562 113.88867188 C45.41750345 119.40954317 46.16925228 124.93037753 46.9230957 130.45092773 C49.68780146 150.70019647 52.39714292 170.95416784 54.97034836 191.22871971 C56.72228673 205.01722675 58.63876231 218.77482905 60.71118164 232.51904297 C61.10079649 235.11346423 61.48249894 237.70895743 61.86328125 240.3046875 C62.03661736 241.42954056 62.03661736 241.42954056 62.2134552 242.57711792 C62.98450408 247.87368721 63 252.52349214 63 258 C46.5 258 30 258 13 258 C13 268.23 13 278.46 13 289 C5.08 289 -2.84 289 -11 289 C-11 278.77 -11 268.54 -11 258 C-28.16 258 -45.32 258 -63 258 C-61.87487777 243.37341102 -61.87487777 243.37341102 -61.05126953 237.78198242 C-60.77370064 235.87583664 -60.77370064 235.87583664 -60.49052429 233.93118286 C-60.28807418 232.57259353 -60.08549958 231.21402275 -59.8828125 229.85546875 C-59.66724536 228.38854915 -59.45203045 226.92157775 -59.23713684 225.45455933 C-58.65889168 221.51595416 -58.07480237 217.57823713 -57.48929977 213.64070511 C-56.99949627 210.3423543 -56.51296012 207.04352439 -56.02625179 203.74471569 C-52.39958374 179.17348527 -48.68905769 154.61494669 -44.9375 130.0625 C-44.76032314 128.9026742 -44.76032314 128.9026742 -44.57956696 127.71941757 C-43.89809337 123.25977147 -43.21525982 118.80033665 -42.5305233 114.34119034 C-42.22757101 112.36804945 -41.92515228 110.39482666 -41.62275696 108.42160034 C-41.4377916 107.2203653 -41.25282623 106.01913025 -41.06225586 104.78149414 C-40.90446152 103.75528458 -40.74666718 102.72907501 -40.58409119 101.67176819 C-39.75232636 96.443051 -38.87040401 91.22242406 -38 86 C-53.18 86 -68.36 86 -84 86 C-77.25025606 78.12529874 -77.25025606 78.12529874 -74.58544922 75.47192383 C-73.9800531 74.86659821 -73.37465698 74.26127258 -72.75091553 73.63760376 C-71.78753265 72.68197037 -71.78753265 72.68197037 -70.8046875 71.70703125 C-70.11119202 71.01499603 -69.41769653 70.32296082 -68.70318604 69.60995483 C-67.20820969 68.11876214 -65.71207996 66.62872502 -64.21490479 65.13973999 C-61.84122508 62.77890788 -59.47075679 60.41489262 -57.10107422 58.05004883 C-51.2171897 52.17948324 -45.32786572 46.31438423 -39.4387207 40.44909668 C-34.454434 35.48458322 -29.47222814 30.51799896 -24.49273682 25.54867554 C-22.16501404 23.22740316 -19.83428411 20.90917982 -17.50341797 18.59106445 C-16.06723386 17.1585152 -14.63119127 15.72582405 -13.1953125 14.29296875 C-12.55305725 13.65587982 -11.910802 13.01879089 -11.24908447 12.36239624 C-7.28664429 8.40041746 -3.59881942 4.29577632 0 0 Z " fill="#91A0C3" transform="translate(439,316)"/>
<path d="M0 0 C4.9392953 0.68312541 9.77466635 1.53634638 14.625 2.6875 C15.35154785 2.85902588 16.0780957 3.03055176 16.82666016 3.20727539 C22.7218712 4.62976406 28.54961087 6.25406037 34.375 7.9375 C35.2520459 8.18983398 36.1290918 8.44216797 37.03271484 8.70214844 C44.22413339 10.77266505 44.22413339 10.77266505 47.63964844 11.7734375 C50.17216353 12.51086028 52.71000545 13.22633184 55.25 13.9375 C55.99942871 14.16107178 56.74885742 14.38464355 57.52099609 14.61499023 C68.14421094 17.5352452 78.25892889 13.8495804 88.625 11.1875 C89.99856512 10.83996952 91.37226252 10.49296141 92.74609375 10.14648438 C110.41687726 5.74358865 110.41687726 5.74358865 127.8515625 0.515625 C130 0 130 0 135 0 C135 38.28 135 76.56 135 116 C127.74 117.98 120.48 119.96 113 122 C105.94164374 124.22871498 105.94164374 124.22871498 98.890625 126.48046875 C93.37928849 128.21951578 87.82220113 129.78134959 82.25 131.3125 C81.33283203 131.56708984 80.41566406 131.82167969 79.47070312 132.08398438 C66.03980004 135.72710443 66.03980004 135.72710443 59.125 133.5 C57.90683594 133.12488281 56.68867188 132.74976563 55.43359375 132.36328125 C54.39501221 132.039646 54.39501221 132.039646 53.33544922 131.70947266 C48.64389034 130.28425103 43.91159204 128.99986924 39.1875 127.6875 C37.03508849 127.08487738 34.88274604 126.48200806 32.73046875 125.87890625 C28.1103029 124.58688926 23.48758382 123.30447196 18.86328125 122.02734375 C17.71384033 121.70870361 16.56439941 121.39006348 15.38012695 121.06176758 C13.156763 120.44558502 10.93265915 119.832065 8.70776367 119.22143555 C7.71107666 118.94468994 6.71438965 118.66794434 5.6875 118.3828125 C4.36298828 118.01760498 4.36298828 118.01760498 3.01171875 117.64501953 C1 117 1 117 0 116 C-0.09575309 114.49448826 -0.12188187 112.9844897 -0.12025452 111.47593689 C-0.12162918 110.49852036 -0.12300385 109.52110382 -0.12442017 108.5140686 C-0.12082489 107.43297821 -0.11722961 106.35188782 -0.11352539 105.23803711 C-0.11367142 104.1064769 -0.11381744 102.97491669 -0.1139679 101.80906677 C-0.11326819 98.04847329 -0.10547311 94.28792863 -0.09765625 90.52734375 C-0.09579227 87.92802457 -0.09436828 85.32870503 -0.09336853 82.72938538 C-0.08993341 76.57411423 -0.08204256 70.4188634 -0.07201904 64.26359993 C-0.06085694 57.25766654 -0.05534721 50.25173233 -0.05032361 43.24579227 C-0.03985992 28.83051867 -0.02226108 14.41525996 0 0 Z " fill="#DFCCB7" transform="translate(373,152)"/>
<path d="M0 0 C6.27 0 12.54 0 19 0 C19 23.43 19 46.86 19 71 C-3 71 -3 71 -8.0078125 66.8203125 C-9.65869141 64.09057617 -9.65869141 64.09057617 -11.125 61.125 C-12.30160986 59.10258905 -13.47870042 57.08045769 -14.65625 55.05859375 C-15.21054687 54.04007324 -15.76484375 53.02155273 -16.3359375 51.97216797 C-18.82800072 47.52111491 -21.7222087 43.37701197 -24.625 39.1875 C-28.42223327 33.59831395 -31.70218857 27.93606057 -35 22 C-35.33 38.17 -35.66 54.34 -36 71 C-41.94 71 -47.88 71 -54 71 C-54 47.9 -54 24.8 -54 1 C-46.08 1 -38.16 1 -30 1 C-22.94773788 8.26173525 -22.94773788 8.26173525 -21.30078125 11.66015625 C-19.40031532 15.33834454 -17.22809972 18.62098999 -14.79931641 21.96875 C-8.81776526 30.2367014 -3.83273878 39.02661837 1 48 C0.9285376 47.3512793 0.8570752 46.70255859 0.78344727 46.03417969 C-0.15439383 36.43134213 -0.11310423 26.88580955 -0.0625 17.25 C-0.05747197 15.57031384 -0.05291138 13.89062622 -0.04882812 12.2109375 C-0.03879267 8.14055806 -0.01919994 4.07038719 0 0 Z " fill="#FEFEFD" transform="translate(458,183)"/>
<path d="M0 0 C6.48364194 3.76356069 11.62176545 8.86695977 13.609375 16.26953125 C15.37551891 28.61487717 14.32112942 39.75847265 7.375 50.375 C3.11083656 55.6725704 -3.39336301 58.69449688 -10 60 C-17.8716605 60.78265076 -24.25920238 58.98042227 -31.1875 55.3125 C-37.73557159 49.92853003 -41.80185867 43.45678393 -43 35 C-43.18356299 24.24320851 -41.69531073 14.41778986 -34.8828125 5.859375 C-25.27617186 -3.6276809 -12.14386585 -5.9048155 0 0 Z " fill="#FBFCFD" transform="translate(492,37)"/>
<path d="M0 0 C6.51369315 6.36626388 9.09803884 12.83038315 9.25 21.9375 C9.11618391 29.94230437 7.17649304 35.02060777 1.79296875 40.86328125 C-2.57162499 45.021267 -6.62641023 47.15042307 -12.375 48.875 C-12.95765625 49.05417969 -13.5403125 49.23335938 -14.140625 49.41796875 C-23.83513206 51.4009361 -33.26377533 50.69064683 -41.87890625 45.7109375 C-45.66777215 42.92413472 -48.13890098 39.99412978 -50.375 35.875 C-50.87966797 34.96814453 -50.87966797 34.96814453 -51.39453125 34.04296875 C-54.66554903 26.94829548 -54.65533915 17.78460969 -52.1875 10.4375 C-47.95839344 2.12511813 -41.91775936 -2.75197847 -33.11328125 -5.9453125 C-21.42334508 -8.92551167 -9.6218465 -7.63609957 0 0 Z " fill="#FCFCFD" transform="translate(840.375,372.125)"/>
<path d="M0 0 C4.72048897 2.48963407 8.2050393 5.82004209 11.9375 9.5625 C12.55778076 10.18439209 13.17806152 10.80628418 13.81713867 11.44702148 C20.91770407 18.73906281 25.94084833 25.76169271 26.3125 36.1875 C26.17600573 44.40445528 22.62125698 51.27010549 17.05859375 57.1796875 C9.70412989 63.68287566 1.43278066 67.56964933 -8.4296875 67.3046875 C-20.99034546 65.81573412 -31.07121183 55.39828204 -39.1015625 46.41796875 C-41 44 -41 44 -42 41 C-38.7318517 37.70687173 -35.46023304 34.41724235 -32.18554688 31.13061523 C-31.07524416 30.0153271 -29.96584571 28.89913789 -28.85742188 27.78198242 C-23.27989966 22.16167236 -17.71763167 16.60725193 -11.68945312 11.46459961 C-9.16767415 9.27845046 -6.84362325 6.93867357 -4.5 4.5625 C-3.6440625 3.69753906 -2.788125 2.83257812 -1.90625 1.94140625 C-1.2771875 1.30074219 -0.648125 0.66007813 0 0 Z " fill="#FCFCFD" transform="translate(719,142)"/>
<path d="M0 0 C6.43425865 5.66423581 12.34234369 14.61749938 13.23828125 23.3125 C13.5122376 33.2326036 11.4803685 40.81346875 4.625 48.1875 C-1.24262931 53.6622077 -7.91107975 57.35733065 -15 61 C-16.10214844 61.60328125 -16.10214844 61.60328125 -17.2265625 62.21875 C-19 63 -19 63 -22 63 C-22.40202637 62.30140869 -22.80405273 61.60281738 -23.21826172 60.88305664 C-25.10301904 57.60906379 -26.98882154 54.33567421 -28.875 51.0625 C-29.21536285 50.47164612 -29.55572571 49.88079224 -29.90640259 49.27203369 C-34.50339908 41.29392329 -39.12006282 33.32845036 -43.85302734 25.42993164 C-46.45643073 21.0505317 -48.76178701 16.57747397 -51 12 C-37.61732823 0.56231524 -17.1057354 -12.08668729 0 0 Z " fill="#FCFCFD" transform="translate(265,91)"/>
<path d="M0 0 C7.47245802 5.24266593 13.57069977 12.11096961 16 21 C17.16477319 31.67257291 15.25056439 39.93587714 8.8125 48.5 C4.71334396 53.48136571 0.36868659 58.25487329 -4 63 C-8.50683663 62.12321431 -11.21029306 59.53843416 -14.5625 56.5625 C-15.18165283 56.02262451 -15.80080566 55.48274902 -16.4387207 54.92651367 C-21.13602733 50.8143303 -25.7391338 46.6028129 -30.3359375 42.37890625 C-33.96588181 39.13750437 -37.75197014 36.10541306 -41.5390625 33.05078125 C-44.56425419 30.52978818 -47.29142769 27.85498162 -50 25 C-47.88472809 19.00495802 -44.10299452 14.76911107 -40 10 C-38.95779297 8.77603516 -38.95779297 8.77603516 -37.89453125 7.52734375 C-27.31251866 -4.01842227 -13.90715069 -7.61635555 0 0 Z " fill="#FCFDFD" transform="translate(169,168)"/>
<path d="M0 0 C4.29 0 8.58 0 13 0 C13 8.58 13 17.16 13 26 C21.25 26 29.5 26 38 26 C38 30.29 38 34.58 38 39 C29.75 39 21.5 39 13 39 C13 59.13 13 79.26 13 100 C9.04 100 5.08 100 1 100 C0 99 0 99 -0.12025452 96.60191345 C-0.1169236 95.00640404 -0.1169236 95.00640404 -0.11352539 93.37866211 C-0.11344986 92.17749252 -0.11337433 90.97632294 -0.11329651 89.73875427 C-0.10813522 88.4314888 -0.10297394 87.12422333 -0.09765625 85.77734375 C-0.09579198 84.43355868 -0.09436812 83.08977293 -0.09336853 81.74598694 C-0.08954402 78.20317723 -0.07971432 74.6604083 -0.06866455 71.11761475 C-0.05844899 67.50484773 -0.0538706 63.89207416 -0.04882812 60.27929688 C-0.03809198 53.18617961 -0.02049572 46.09309675 0 39 C-8.58 39 -17.16 39 -26 39 C-26 34.71 -26 30.42 -26 26 C-17.42 26 -8.84 26 0 26 C0 17.42 0 8.84 0 0 Z " fill="#FAFAFC" transform="translate(433,500)"/>
<path d="M0 0 C3.22426158 3.68487038 4.61867556 7.90746364 6.1875 12.5 C7.1775 11.84 8.1675 11.18 9.1875 10.5 C11.91506612 10.32825357 14.5260473 10.26540844 17.25 10.3125 C18.00917725 10.31894531 18.76835449 10.32539063 19.55053711 10.33203125 C25.14417416 10.40825669 30.63507816 10.79493056 36.1875 11.5 C35.87828116 12.95903258 35.56501201 14.41720722 35.25 15.875 C35.07597656 16.68710937 34.90195313 17.49921875 34.72265625 18.3359375 C34.1875 20.5 34.1875 20.5 33.1875 22.5 C32.45112305 22.4685791 31.71474609 22.4371582 30.95605469 22.40478516 C27.61684949 22.27999934 24.27813415 22.20200693 20.9375 22.125 C19.19919922 22.04958984 19.19919922 22.04958984 17.42578125 21.97265625 C14.24292752 21.91746225 11.32161607 21.93714302 8.1875 22.5 C5.07051239 25.661516 4.17097082 28.29800115 3.1875 32.5 C3.81841553 32.7266333 4.44933105 32.9532666 5.09936523 33.18676758 C7.94571957 34.21676924 10.78527953 35.26435495 13.625 36.3125 C14.61822266 36.66892578 15.61144531 37.02535156 16.63476562 37.39257812 C17.57900391 37.74384766 18.52324219 38.09511719 19.49609375 38.45703125 C20.37064209 38.77647705 21.24519043 39.09592285 22.14624023 39.42504883 C24.1875 40.5 24.1875 40.5 25.1875 43.5 C24.41015625 45.54296875 24.41015625 45.54296875 23.25 47.6875 C22.67958984 48.76064453 22.67958984 48.76064453 22.09765625 49.85546875 C21.79730469 50.39816406 21.49695313 50.94085938 21.1875 51.5 C17.88493116 50.90560293 14.8670809 50.10657097 11.73828125 48.8984375 C10.47914917 48.41552246 10.47914917 48.41552246 9.19458008 47.92285156 C8.30536865 47.57706055 7.41615723 47.23126953 6.5 46.875 C5.11300903 46.34084473 5.11300903 46.34084473 3.69799805 45.79589844 C0.85954537 44.70140313 -1.97663544 43.6011813 -4.8125 42.5 C-6.48952891 41.85142177 -8.16660948 41.20297709 -9.84375 40.5546875 C-14.17053811 38.87962915 -18.49233276 37.19204697 -22.8125 35.5 C-23.90304688 35.07460938 -24.99359375 34.64921875 -26.1171875 34.2109375 C-27.02726562 33.85257812 -27.93734375 33.49421875 -28.875 33.125 C-29.62910156 32.82851563 -30.38320313 32.53203125 -31.16015625 32.2265625 C-32.8125 31.5 -32.8125 31.5 -33.8125 30.5 C-33.44883071 19.58992143 -29.49574458 8.42780409 -21.8125 0.5 C-14.80743629 -4.79651159 -7.49603161 -3.99788353 0 0 Z " fill="#FCFCFD" transform="translate(88.8125,282.5)"/>
<path d="M0 0 C20.02539312 -0.14833625 39.99001728 0.29374322 60 1 C63.53431987 8.06863974 61.72624935 21.19903193 60.28125 28.76171875 C58.25358573 34.75477483 55.74490688 38.12754656 50 41 C44.44468752 41.5072965 39.58169764 41.76260422 34.5 39.3125 C32.03305922 37.03057978 29.96658729 34.72296701 28 32 C26.76056641 33.16982422 26.76056641 33.16982422 25.49609375 34.36328125 C21.93288764 37.32861294 18.53878403 38.26852778 14.0625 39.1875 C12.6989703 39.49238057 11.33568633 39.79836226 9.97265625 40.10546875 C8.98676514 40.32082275 8.98676514 40.32082275 7.98095703 40.54052734 C4.95084284 41.24334653 1.98225587 42.11737668 -1 43 C-1 39.04 -1 35.08 -1 31 C4.11737317 29.20178992 9.31071162 27.89537459 14.609375 26.76367188 C17.80783637 25.98348039 19.89999592 25.08648562 22.3984375 22.92578125 C24.66328929 19.22864271 24.66328929 19.22864271 25 11 C16.75 11 8.5 11 0 11 C0 7.37 0 3.74 0 0 Z " fill="#FCFCFD" transform="translate(791,433)"/>
<path d="M0 0 C0.984375 1.92578125 0.984375 1.92578125 1.75 4.3125 C2.14445313 5.48232422 2.14445313 5.48232422 2.546875 6.67578125 C3.0539257 9.27660165 2.84453714 10.51166334 2 13 C0.80419922 14.61230469 0.80419922 14.61230469 -0.6953125 16.171875 C-1.2426001 16.74953613 -1.7898877 17.32719727 -2.35375977 17.92236328 C-2.93826904 18.5254834 -3.52277832 19.12860352 -4.125 19.75 C-5.32511445 21.01216978 -6.52434198 22.27518349 -7.72265625 23.5390625 C-8.2964502 24.14137695 -8.87024414 24.74369141 -9.46142578 25.36425781 C-11.22192424 27.23593977 -12.90303287 29.16343536 -14.5625 31.125 C-19.37746029 36.72208582 -24.74424134 41.82191265 -30 47 C-29.45980225 46.81824219 -28.91960449 46.63648438 -28.36303711 46.44921875 C-20.33381222 43.75872561 -12.2611693 41.21257833 -4.18017578 38.68261719 C-2.33694337 38.10549761 -0.4945486 37.52570376 1.34765625 36.9453125 C2.22292969 36.67460937 3.09820313 36.40390625 4 36.125 C4.721875 35.90070313 5.44375 35.67640625 6.1875 35.4453125 C8 35 8 35 11 35 C11.99 39.95 11.99 39.95 13 45 C11.65808594 45.44730469 10.31617188 45.89460938 8.93359375 46.35546875 C8.06323486 46.64566895 7.19287598 46.93586914 6.29614258 47.23486328 C4.37299747 47.87574741 2.44965396 48.51603647 0.52612305 49.15576172 C-3.68777152 50.55793083 -7.90101769 51.96060424 -12.1015625 53.40234375 C-22.92600403 57.09303024 -33.89885361 60.25047102 -45 63 C-47.33981365 58.92270096 -48.38345108 55.72093015 -48 51 C-44.68355741 45.52447745 -39.65661693 41.26376063 -35.00512695 36.93945312 C-32.39764366 34.41737261 -30.06831011 31.70316865 -27.70996094 28.95019531 C-24.96915273 25.82432782 -22.02291024 22.91622502 -19.0625 20 C-18.17981445 19.12408203 -18.17981445 19.12408203 -17.27929688 18.23046875 C-15.85520207 16.81795195 -14.4279475 15.4086219 -13 14 C-13.54188965 14.1858667 -14.0837793 14.3717334 -14.64208984 14.56323242 C-28.29210357 19.22677154 -41.97976716 23.57687821 -56 27 C-57.43668294 23.1389146 -58.11185208 20.103573 -58 16 C-57.42145264 15.83918945 -56.84290527 15.67837891 -56.24682617 15.51269531 C-42.42673021 11.69272535 -42.42673021 11.69272535 -28.88671875 7.00390625 C-24.09071476 5.33601312 -19.18346961 4.0567439 -14.27856445 2.74975586 C-11.12718781 1.90359422 -8.15801034 1.06710028 -5.1484375 -0.2109375 C-3 -1 -3 -1 0 0 Z " fill="#FCFCFD" transform="translate(827,300)"/>
<path d="M0 0 C1.17111943 4.15604577 1.64945342 7.7095164 1 12 C-1.74156912 15.59725393 -5.20036296 17.98669772 -8.88964844 20.5234375 C-11.3101645 22.21701468 -13.65766795 23.99134013 -16.0078125 25.78125 C-23.2599496 31.30003746 -30.57721057 36.71333006 -38 42 C-36.94611084 41.87882812 -35.89222168 41.75765625 -34.80639648 41.6328125 C-30.87259784 41.18157857 -26.93822422 40.73553912 -23.00366211 40.29101562 C-21.30526021 40.09840835 -19.6070145 39.90441839 -17.90893555 39.70898438 C-15.45922593 39.42729292 -13.00898594 39.150683 -10.55859375 38.875 C-9.43160316 38.74375732 -9.43160316 38.74375732 -8.28184509 38.60986328 C-3.82270288 38.11403931 0.51320895 37.91724651 5 38 C5.495 42.95 5.495 42.95 6 48 C-6.75029766 50.09073204 -19.54146228 51.7115861 -32.375 53.1875 C-33.15106598 53.27785522 -33.92713196 53.36821045 -34.72671509 53.46130371 C-36.97102124 53.72168316 -39.21584465 53.97697141 -41.4609375 54.23046875 C-42.76853027 54.37895264 -44.07612305 54.52743652 -45.42333984 54.68041992 C-48.6418516 54.96799889 -51.77147291 55.06140373 -55 55 C-56.3115381 50.46726669 -56.83735376 46.67182127 -56 42 C-52.56960671 38.00697851 -48.53857234 35.33848149 -44.16015625 32.46386719 C-40.33874052 29.87421882 -36.75560679 26.97272445 -33.125 24.125 C-27.92932328 20.08134994 -22.64791587 16.38799622 -17 13 C-17.59723877 13.08040527 -18.19447754 13.16081055 -18.80981445 13.24365234 C-32.18866698 15.03705049 -45.56722953 16.66769488 -59 18 C-60.28317892 14.15046324 -60.06643637 11.05261865 -60 7 C-52.76795523 6.08440223 -45.53557872 5.17147425 -38.30276871 4.26194 C-34.94419188 3.83951016 -31.58573555 3.4161664 -28.22753906 2.99072266 C-24.36557678 2.50149867 -20.5031176 2.01627007 -16.640625 1.53125 C-15.4363385 1.37813354 -14.232052 1.22501709 -12.99127197 1.06726074 C-11.87041199 0.92711548 -10.749552 0.78697021 -9.59472656 0.64257812 C-8.60877502 0.51822388 -7.62282349 0.39386963 -6.60699463 0.26574707 C-4 0 -4 0 0 0 Z " fill="#FCFCFD" transform="translate(93,461)"/>
<path d="M0 0 C4.77609498 1.64178265 8.79382904 4.26546702 13 7 C9.91350729 21.40363264 6.02686359 35.44324996 1.68359375 49.51171875 C-0.31159372 55.98015006 -2.18074848 62.48007373 -4 69 C-7.55225704 67.28564986 -10.74021634 65.22257977 -14 63 C-13.32418477 56.91766294 -12.26361972 50.98685848 -11 45 C-13.04793098 43.43481703 -15.10949896 41.89931576 -17.1875 40.375 C-18.0547168 39.70597656 -18.0547168 39.70597656 -18.93945312 39.0234375 C-20.86389863 37.57182852 -20.86389863 37.57182852 -24 36 C-28.17834233 36.74613256 -30.75207765 39.29296737 -33.8125 42.125 C-34.60269531 42.84945312 -35.39289062 43.57390625 -36.20703125 44.3203125 C-37.09455078 45.15175781 -37.09455078 45.15175781 -38 46 C-42.39309313 44.41996314 -44.82418312 42.44802976 -48 39 C-42.60113247 33.90876025 -36.91597774 29.34275716 -31 24.875 C-22.71834518 18.61963872 -14.70673964 12.07352981 -6.73242188 5.43310547 C-4.50996705 3.59463171 -2.26033139 1.79161926 0 0 Z " fill="#FCFCFD" transform="translate(663,99)"/>
<path d="M0 0 C7.05139296 12.78173139 13.94927149 25.63119092 20.63354492 38.60913086 C22.80636853 42.82061945 24.97322181 47.0114731 27.375 51.09765625 C29 54 29 54 29 56 C25.04 56.66 21.08 57.32 17 58 C14.36 53.05 11.72 48.1 9 43 C-0.405 43.99 -0.405 43.99 -10 45 C-10.24880696 49.75587143 -10.24880696 49.75587143 -10.47802734 54.51269531 C-10.88892975 61.42552409 -10.88892975 61.42552409 -13 64 C-15.3828125 64.609375 -15.3828125 64.609375 -18.125 64.75 C-19.03507812 64.80671875 -19.94515625 64.8634375 -20.8828125 64.921875 C-21.58148438 64.94765625 -22.28015625 64.9734375 -23 65 C-23.23657156 57.93356977 -22.32081709 51.20505987 -21.28515625 44.22265625 C-21.10995956 43.01556503 -20.93476288 41.80847382 -20.7542572 40.56480408 C-20.38457533 38.02709427 -20.01209097 35.48979132 -19.63696289 32.95288086 C-19.06099819 29.05232946 -18.49569419 25.15033661 -17.93164062 21.24804688 C-17.5709421 18.78115786 -17.20963558 16.31435765 -16.84765625 13.84765625 C-16.6778273 12.67485611 -16.50799835 11.50205597 -16.33302307 10.29371643 C-16.17293259 9.21847214 -16.0128421 8.14322784 -15.84790039 7.03540039 C-15.70800186 6.08468155 -15.56810333 5.13396271 -15.42396545 4.1544342 C-15 2 -15 2 -14 1 C-9.28048373 0.15048707 -4.78506035 -0.04016238 0 0 Z " fill="#FCFCFD" transform="translate(379,39)"/>
<path d="M0 0 C6.69451157 3.14248249 12.72528517 6.96820153 18.875 11.0625 C27.61209491 16.82349999 36.42614039 22.41560528 45.3828125 27.828125 C46.00575195 28.20517578 46.62869141 28.58222656 47.27050781 28.97070312 C48.82867741 29.89803839 50.40927877 30.78742991 51.9921875 31.671875 C52.65476563 32.11015625 53.31734375 32.5484375 54 33 C54 33.66 54 34.32 54 35 C52.42578125 36.54296875 52.42578125 36.54296875 50.3125 38.1875 C49.62800781 38.73792969 48.94351563 39.28835937 48.23828125 39.85546875 C46 41 46 41 43.5625 40.8984375 C40.51381257 39.82953794 38.29032124 38.34623557 35.6875 36.4375 C34.80449219 35.79683594 33.92148438 35.15617187 33.01171875 34.49609375 C32.34785156 34.00238281 31.68398437 33.50867188 31 33 C27.24269753 34.6281644 24.383177 37.01401917 21.25 39.625 C20.26515625 40.44226563 19.2803125 41.25953125 18.265625 42.1015625 C17.51796875 42.72804687 16.7703125 43.35453125 16 44 C16.44472656 44.96421875 16.88945312 45.9284375 17.34765625 46.921875 C17.91987667 48.19764511 18.49145795 49.47370202 19.0625 50.75 C19.35705078 51.38421875 19.65160156 52.0184375 19.95507812 52.671875 C22.05033184 57.40468339 22.05033184 57.40468339 21.82983398 60.01269531 C20.72657494 62.65480435 19.26859489 63.62193373 16.9375 65.25 C16.20402344 65.77078125 15.47054687 66.2915625 14.71484375 66.828125 C14.14894531 67.21484375 13.58304688 67.6015625 13 68 C8.27898507 56.62455476 8.27898507 56.62455476 6.06762695 51.25976562 C5.51386717 49.91665325 4.96007445 48.57355446 4.40625 47.23046875 C4.12609543 46.55096161 3.84594086 45.87145447 3.55729675 45.1713562 C1.89666616 41.15023262 0.21769342 37.1375004 -1.48005676 33.13191223 C-2.26678409 31.27247162 -3.04787058 29.41077125 -3.8269043 27.5480957 C-4.80248327 25.21808926 -5.78802686 22.89222511 -6.78442383 20.57104492 C-7.22294678 19.5163501 -7.66146973 18.46165527 -8.11328125 17.375 C-8.50298096 16.45460937 -8.89268066 15.53421875 -9.29418945 14.5859375 C-10.10744538 11.60634333 -9.95243174 9.9198569 -9 7 C-6.93359375 4.98046875 -6.93359375 4.98046875 -4.4375 3.1875 C-3.61121094 2.58292969 -2.78492188 1.97835937 -1.93359375 1.35546875 C-1.29550781 0.90816406 -0.65742188 0.46085937 0 0 Z " fill="#FCFCFD" transform="translate(185,124)"/>
<path d="M0 0 C1.62490954 -0.02698189 3.24994633 -0.04638757 4.875 -0.0625 C5.77992188 -0.07410156 6.68484375 -0.08570313 7.6171875 -0.09765625 C10 0 10 0 12 1 C11.01 8.92 10.02 16.84 9 25 C15.35654264 25.61595688 15.35654264 25.61595688 21.71362305 26.22631836 C22.91305542 26.34438843 22.91305542 26.34438843 24.13671875 26.46484375 C24.94842529 26.543396 25.76013184 26.62194824 26.59643555 26.70288086 C29.08295426 27.01025448 31.5432092 27.50864184 34 28 C35.485 16.12 35.485 16.12 37 4 C42.445 4.495 42.445 4.495 48 5 C48.10452743 11.19681787 47.7625702 17.10469051 46.94140625 23.2421875 C46.77849342 24.51571579 46.77849342 24.51571579 46.61228943 25.81497192 C46.26767457 28.50236608 45.91552764 31.18869924 45.5625 33.875 C45.10264166 37.4137011 44.64603373 40.95281077 44.19140625 44.4921875 C44.08325592 45.33134705 43.97510559 46.17050659 43.86367798 47.03509521 C43.10191093 53.01448657 42.48140763 58.99070472 42 65 C38.04 65 34.08 65 30 65 C30.144375 63.55367187 30.28875 62.10734375 30.4375 60.6171875 C30.62515173 58.70313987 30.8126433 56.78907653 31 54.875 C31.09539062 53.92367187 31.19078125 52.97234375 31.2890625 51.9921875 C31.74437277 47.30899618 32.12693246 42.7123674 32 38 C31.41508789 37.94465088 30.83017578 37.88930176 30.22753906 37.83227539 C27.56804892 37.57882735 24.90903168 37.32071175 22.25 37.0625 C21.32960938 36.97548828 20.40921875 36.88847656 19.4609375 36.79882812 C18.57148438 36.71181641 17.68203125 36.62480469 16.765625 36.53515625 C15.54020996 36.41732788 15.54020996 36.41732788 14.29003906 36.29711914 C12 36 12 36 8 35 C7.01 43.58 6.02 52.16 5 61 C-2.875 61 -2.875 61 -6 60 C-5.45154341 46.53107175 -4.09961152 33.24823135 -2.4375 19.875 C-2.20063627 17.93365902 -1.96430539 15.99225296 -1.72851562 14.05078125 C-1.15845635 9.36641772 -0.58128939 4.68298265 0 0 Z " fill="#FCFCFD" transform="translate(376,795)"/>
<path d="M0 0 C5.82804728 4.94117052 9.55912041 10.90708059 10.2265625 18.6171875 C10.42340177 25.22025016 10.02781449 29.77317423 5.3359375 34.7734375 C-2.59048108 42.25774508 -12.16893011 44.82880623 -22.5 47.625 C-23.57636719 47.9240625 -24.65273437 48.223125 -25.76171875 48.53125 C-31.81052416 50.1963292 -37.86293391 51.69780741 -44 53 C-47 45.375 -47 45.375 -47 42 C-40.65234375 40.046875 -34.3046875 38.09375 -27.95703125 36.140625 C-26.24362549 35.61057861 -26.24362549 35.61057861 -24.49560547 35.06982422 C-22.12385532 34.34395405 -19.74765585 33.63249532 -17.36767578 32.93408203 C-16.21380371 32.59231934 -15.05993164 32.25055664 -13.87109375 31.8984375 C-12.83267334 31.59599121 -11.79425293 31.29354492 -10.72436523 30.98193359 C-6.4240878 29.43199938 -3.09558844 27.19117689 -1 23 C-0.4708575 16.60256368 -0.4708575 16.60256368 -3 11 C-7.46256639 7.6816814 -11.24218184 7.63937217 -16.5390625 8.28515625 C-24.2018029 9.86786674 -31.59014198 12.51874837 -39 15 C-49.46302652 18.43712949 -49.46302652 18.43712949 -55 18 C-56.19287411 14.12315913 -57 11.08378077 -57 7 C-56.2678125 6.79246094 -55.535625 6.58492187 -54.78125 6.37109375 C-53.15703125 5.90896484 -53.15703125 5.90896484 -51.5 5.4375 C-50.23671875 5.08042969 -48.9734375 4.72335937 -47.671875 4.35546875 C-44.12618527 3.34028345 -40.60159072 2.26549555 -37.078125 1.17578125 C-36.03591797 0.85875244 -34.99371094 0.54172363 -33.91992188 0.21508789 C-31.84492496 -0.41664831 -29.77312163 -1.05899496 -27.70507812 -1.71313477 C-17.70023479 -4.73152562 -9.177692 -5.59748344 0 0 Z " fill="#FBFCFD" transform="translate(100,528)"/>
<path d="M0 0 C1.79223302 2.40473016 3.47210307 4.81427314 5.125 7.3125 C6.11183459 8.78222238 7.10012541 10.250968 8.08984375 11.71875 C8.57952637 12.44578125 9.06920898 13.1728125 9.57373047 13.921875 C12.13936118 17.66008941 14.88406007 21.26110466 17.63671875 24.86328125 C19 27 19 27 19 30 C13.74285714 34 13.74285714 34 11 34 C9.67138672 32.47119141 9.67138672 32.47119141 8.1796875 30.3515625 C7.64472656 29.59359375 7.10976563 28.835625 6.55859375 28.0546875 C5.72521484 26.85199219 5.72521484 26.85199219 4.875 25.625 C4.31167969 24.8309375 3.74835937 24.036875 3.16796875 23.21875 C-1 17.26450893 -1 17.26450893 -1 15 C-2.84373465 16.06553496 -4.67479236 17.15303177 -6.5 18.25 C-7.5209375 18.85328125 -8.541875 19.4565625 -9.59375 20.078125 C-10.3878125 20.71234375 -11.181875 21.3465625 -12 22 C-12 27.62738054 -8.8044923 30.6296884 -5.46679688 34.8671875 C-1.94996202 39.5163933 -1.94996202 39.5163933 -2.21704102 42.09765625 C-3.38842639 44.9437538 -5.30546 45.68559024 -8 47 C-8.66 47 -9.32 47 -10 47 C-11.18920898 45.53125 -11.18920898 45.53125 -12.49609375 43.5 C-13.21055664 42.4171875 -13.21055664 42.4171875 -13.93945312 41.3125 C-14.93699794 39.77261335 -15.93179916 38.23094585 -16.92382812 36.6875 C-17.64022461 35.6046875 -17.64022461 35.6046875 -18.37109375 34.5 C-19.0196936 33.49453125 -19.0196936 33.49453125 -19.68139648 32.46875 C-20.11653564 31.9840625 -20.5516748 31.499375 -21 31 C-24.82921879 31 -26.02051944 32.24203505 -29.0625 34.5 C-33.79166667 38 -33.79166667 38 -36 38 C-35.60619141 38.55461914 -35.21238281 39.10923828 -34.80664062 39.68066406 C-33.02801544 42.19705034 -31.26392802 44.7232923 -29.5 47.25 C-28.87996094 48.12269531 -28.25992188 48.99539062 -27.62109375 49.89453125 C-27.03457031 50.73886719 -26.44804688 51.58320313 -25.84375 52.453125 C-25.02680664 53.61569824 -25.02680664 53.61569824 -24.19335938 54.80175781 C-23 57 -23 57 -23 61 C-24.75 62.8125 -24.75 62.8125 -27 64 C-29.61769347 63.74065384 -30.72123209 63.29148303 -32.55224609 61.37695312 C-33.03773926 60.68537109 -33.52323242 59.99378906 -34.0234375 59.28125 C-34.84328125 58.12882812 -34.84328125 58.12882812 -35.6796875 56.953125 C-36.51886719 55.73882812 -36.51886719 55.73882812 -37.375 54.5 C-38.20257812 53.33210938 -38.20257812 53.33210938 -39.046875 52.140625 C-40.71681163 49.77292142 -42.36186407 47.38979688 -44 45 C-44.8667334 43.74703125 -44.8667334 43.74703125 -45.75097656 42.46875 C-46.5742041 41.2621875 -46.5742041 41.2621875 -47.4140625 40.03125 C-47.91115723 39.30486328 -48.40825195 38.57847656 -48.92041016 37.83007812 C-50 36 -50 36 -50 34 C-48.44970703 32.6940918 -48.44970703 32.6940918 -46.2578125 31.19921875 C-45.44747559 30.64049072 -44.63713867 30.0817627 -43.80224609 29.50610352 C-42.47700928 28.60589478 -42.47700928 28.60589478 -41.125 27.6875 C-39.28562438 26.42048066 -37.4471005 25.15222404 -35.609375 23.8828125 C-34.67287109 23.23731445 -33.73636719 22.59181641 -32.77148438 21.92675781 C-28.59960772 19.02643623 -24.48525317 16.04921955 -20.375 13.0625 C-18.90380075 11.99718186 -17.43245267 10.93206922 -15.9609375 9.8671875 C-14.94531738 9.13193848 -14.94531738 9.13193848 -13.90917969 8.38183594 C-12.96413574 7.69782715 -12.96413574 7.69782715 -12 7 C-11.15163574 6.38560059 -11.15163574 6.38560059 -10.28613281 5.75878906 C-8.8610842 4.7299343 -7.43080599 3.70833293 -6 2.6875 C-5.2575 2.15511719 -4.515 1.62273437 -3.75 1.07421875 C-2 0 -2 0 0 0 Z " fill="#FCFCFD" transform="translate(767,192)"/>
<path d="M0 0 C0.66 2.97 1.32 5.94 2 9 C-12.59681093 14.37129841 -12.59681093 14.37129841 -20 16 C-19.7834375 16.67546875 -19.566875 17.3509375 -19.34375 18.046875 C-19.0653125 18.93890625 -18.786875 19.8309375 -18.5 20.75 C-18.08234375 22.07257812 -18.08234375 22.07257812 -17.65625 23.421875 C-17 26 -17 26 -17 30 C-15.84242188 29.65066406 -14.68484375 29.30132813 -13.4921875 28.94140625 C-11.95318161 28.48158132 -10.41411593 28.02195648 -8.875 27.5625 C-8.11445312 27.33240234 -7.35390625 27.10230469 -6.5703125 26.86523438 C-2.39566417 25.62363638 1.67379163 24.60124621 6 24 C6.66 26.97 7.32 29.94 8 33 C4.87607768 34.00347791 1.75096549 35.0029248 -1.375 36 C-2.26445313 36.28617188 -3.15390625 36.57234375 -4.0703125 36.8671875 C-4.92109375 37.13789062 -5.771875 37.40859375 -6.6484375 37.6875 C-7.43395996 37.93886719 -8.21948242 38.19023438 -9.02880859 38.44921875 C-11 39 -11 39 -13 39 C-12.71125 39.97582031 -12.4225 40.95164062 -12.125 41.95703125 C-11.74978981 43.24212615 -11.37480138 44.52728581 -11 45.8125 C-10.62875 47.07707031 -10.2575 48.34164062 -9.875 49.64453125 C-9 53 -9 53 -9 56 C-8.35450195 55.7827124 -7.70900391 55.5654248 -7.04394531 55.34155273 C-4.11611907 54.36271546 -1.18324495 53.399971 1.75 52.4375 C2.76578125 52.09525391 3.7815625 51.75300781 4.828125 51.40039062 C5.8078125 51.08134766 6.7875 50.76230469 7.796875 50.43359375 C9.14797363 49.98584595 9.14797363 49.98584595 10.52636719 49.52905273 C13.11805604 48.97475055 14.52831573 49.12986625 17 50 C17.495 53.96 17.495 53.96 18 58 C10.21189521 60.94245117 2.37955062 63.58414358 -5.625 65.875 C-6.39440918 66.1021167 -7.16381836 66.3292334 -7.95654297 66.56323242 C-11.71681618 67.61329766 -14.27214276 68.16747596 -18 67 C-18.15557373 66.4423999 -18.31114746 65.8847998 -18.47143555 65.31030273 C-22.26236161 51.73344816 -22.26236161 51.73344816 -26.5625 38.3125 C-28.47450477 32.68236218 -30.23446333 27.02660662 -31.875 21.3125 C-32.1026001 20.54526611 -32.3302002 19.77803223 -32.56469727 18.98754883 C-33.61811049 15.24184725 -34.1618493 12.71452175 -33 9 C-31.83984375 8.68546875 -30.6796875 8.3709375 -29.484375 8.046875 C-21.3309223 5.81859678 -13.25407942 3.53485526 -5.28515625 0.69921875 C-3 0 -3 0 0 0 Z " fill="#FCFCFD" transform="translate(564,779)"/>
<path d="M0 0 C2.97 0.33 5.94 0.66 9 1 C8.32545897 8.8246759 6.73123042 16.34556614 5 24 C6.39449109 24.483059 7.79066707 24.96125517 9.1875 25.4375 C9.96480469 25.70433594 10.74210937 25.97117187 11.54296875 26.24609375 C14.01309856 27.00401911 16.45992864 27.53529778 19 28 C19.16435547 26.98292969 19.16435547 26.98292969 19.33203125 25.9453125 C20.43787519 19.4540985 21.96298092 13.26043863 24 7 C26.64 7.33 29.28 7.66 32 8 C33.33833505 12.01500515 32.19202317 14.99092756 31.125 18.9375 C30.93808594 19.65357422 30.75117187 20.36964844 30.55859375 21.10742188 C30.04484831 23.07313583 29.52274671 25.0366606 29 27 C28.66451049 28.33279244 28.33059487 29.66598504 28 31 C29.134375 31.12375 30.26875 31.2475 31.4375 31.375 C36.03337785 31.94229083 40.49901249 32.92684788 45 34 C45.10957031 33.42894531 45.21914062 32.85789062 45.33203125 32.26953125 C45.87174185 29.50954779 46.43506448 26.75493247 47 24 C47.22945312 22.83726562 47.45890625 21.67453125 47.6953125 20.4765625 C47.94023438 19.30867188 48.18515625 18.14078125 48.4375 16.9375 C48.66308594 15.83277344 48.88867188 14.72804688 49.12109375 13.58984375 C49.41113281 12.73519531 49.70117188 11.88054687 50 11 C53.76624671 9.74458443 55.37188934 10.62938042 59 12 C58.36766365 18.90596548 57.13128866 25.49917766 55.5625 32.25 C55.34529297 33.21679688 55.12808594 34.18359375 54.90429688 35.1796875 C53.88333222 39.6314613 52.77694287 43.78052559 51 48 C43.59017218 46.76026162 36.37435665 45.15060348 29.125 43.1875 C20.30158355 40.83783321 11.4555453 38.63373148 2.56298828 36.5612793 C1.33298096 36.27377808 1.33298096 36.27377808 0.078125 35.98046875 C-0.99840332 35.73139771 -0.99840332 35.73139771 -2.09667969 35.47729492 C-3.75242243 35.06208493 -5.38058806 34.53980398 -7 34 C-6.50331455 26.20367589 -4.91293993 18.9192555 -2.9375 11.375 C-2.65583984 10.27542969 -2.37417969 9.17585938 -2.08398438 8.04296875 C-1.39580462 5.3602341 -0.70104562 2.67939571 0 0 Z " fill="#FBFCFD" transform="translate(48,329)"/>
<path d="M0 0 C7.20912968 1.31350057 14.19557842 3.08390097 21.22265625 5.15234375 C22.76269569 5.60354332 22.76269569 5.60354332 24.33384705 6.06385803 C26.48329821 6.69595921 28.63201905 7.33054877 30.7800293 7.9675293 C34.08104105 8.94297888 37.38700156 9.90027324 40.69335938 10.85742188 C42.78678578 11.47545443 44.87989683 12.09455642 46.97265625 12.71484375 C47.96419205 12.9993187 48.95572784 13.28379364 49.97731018 13.57688904 C51.34024452 13.98730186 51.34024452 13.98730186 52.73071289 14.40600586 C53.53328018 14.64202011 54.33584747 14.87803436 55.16273499 15.12120056 C55.76903244 15.41120438 56.3753299 15.70120819 57 16 C58.11254144 19.33762431 57.903443 20.0817789 56.890625 23.31640625 C56.63023437 24.16396484 56.36984375 25.01152344 56.1015625 25.88476562 C55.82054687 26.76841797 55.53953125 27.65207031 55.25 28.5625 C54.98445312 29.41908203 54.71890625 30.27566406 54.4453125 31.15820312 C53.90787691 32.89182422 53.36291761 34.6231304 52.81054688 36.35205078 C52.25367637 38.17127292 51.74156751 40.00461322 51.26757812 41.84716797 C50.91083008 43.20479248 50.91083008 43.20479248 50.546875 44.58984375 C50.34416992 45.41218506 50.14146484 46.23452637 49.93261719 47.08178711 C49 49 49 49 47.10644531 49.83422852 C44.09587294 50.07115233 41.78365799 49.07550422 39 48 C40.79354806 40.59684417 42.73141173 33.27235389 45 26 C41.98509443 23.99006295 39.7850073 23.27376659 36.3125 22.375 C35.31863281 22.11460937 34.32476563 21.85421875 33.30078125 21.5859375 C32.54152344 21.39257812 31.78226563 21.19921875 31 21 C30.73445312 22.09699219 30.46890625 23.19398438 30.1953125 24.32421875 C29.83873185 25.77869247 29.4819504 27.23311698 29.125 28.6875 C28.95097656 29.40873047 28.77695312 30.12996094 28.59765625 30.87304688 C27.64902134 34.72028845 26.59509159 38.35715569 25 42 C22.03 41.34 19.06 40.68 16 40 C17.61088355 32.21406284 19.76543688 24.62571782 22 17 C20.845 16.87625 19.69 16.7525 18.5 16.625 C14.13155165 16.15695196 10.39868045 15.09967011 6 14 C3.69 21.59 1.38 29.18 -1 37 C-3.97 36.34 -6.94 35.68 -10 35 C-9.35900429 28.68663133 -7.53766534 22.9514963 -5.5625 16.9375 C-5.24990234 15.97005859 -4.93730469 15.00261719 -4.61523438 14.00585938 C-3.1011405 9.3291339 -1.56391835 4.66031951 0 0 Z " fill="#FCFCFD" transform="translate(781,527)"/>
<path d="M0 0 C4.65388611 0.48570384 8.63752189 2.53622248 12.80078125 4.53515625 C13.55481735 4.89210068 14.30885345 5.2490451 15.08573914 5.61680603 C16.68477801 6.37499454 18.28255611 7.13584702 19.87915039 7.89916992 C22.26384593 9.03923958 24.65199102 10.17176919 27.04101562 11.30273438 C37.09280785 16.07312283 47.06848889 20.98435235 57 26 C57.125 35.625 57.125 35.625 56 39 C53.25029023 39.90589973 50.63402339 40.57965894 47.8125 41.1875 C46.483396 41.48853638 46.483396 41.48853638 45.12744141 41.7956543 C41.75559234 42.54965797 38.37838911 43.27584421 35 44 C33.44284422 44.33613856 31.88571704 44.6724096 30.32861328 45.00878906 C25.17934464 46.11917095 20.02772633 47.21828517 14.875 48.3125 C14.01605133 48.49525482 13.15710266 48.67800964 12.27212524 48.86630249 C9.80455838 49.38974896 7.33607147 49.90858679 4.8671875 50.42578125 C4.11800552 50.58490997 3.36882355 50.7440387 2.59693909 50.9079895 C-0.32831201 51.51630782 -3.00286946 52 -6 52 C-5.67 48.04 -5.34 44.08 -5 40 C3.05095672 37.58471298 11.04135748 36.08248005 19.3203125 34.7578125 C23.91238575 34.0228505 28.48936979 33.21943018 33.0625 32.375 C33.74723389 32.25189453 34.43196777 32.12878906 35.13745117 32.00195312 C38.34667299 31.60769329 38.34667299 31.60769329 41 30 C39.98164062 29.56655273 38.96328125 29.13310547 37.9140625 28.68652344 C34.10358067 27.06387317 30.29451098 25.43793036 26.48583984 23.81103516 C24.84331434 23.10995326 23.20041703 22.40974173 21.55712891 21.71044922 C19.18291376 20.6999302 16.8100934 19.68619488 14.4375 18.671875 C13.35106201 18.21068268 13.35106201 18.21068268 12.24267578 17.74017334 C7.39938037 15.66477388 2.69457351 13.39349319 -2 11 C-1.85957123 9.35369672 -1.71250671 7.70795821 -1.5625 6.0625 C-1.48128906 5.14597656 -1.40007813 4.22945313 -1.31640625 3.28515625 C-1 1 -1 1 0 0 Z " fill="#FCFCFD" transform="translate(38,376)"/>
<path d="M0 0 C3.7952131 1.49097658 5.61042731 3.75700849 8 7 C7.2575 7.53625 6.515 8.0725 5.75 8.625 C2.29804286 11.60623571 -0.60860231 14.41001037 -1.31640625 19.09375 C-1.42783445 21.52016195 -1.42783445 21.52016195 -1 25 C0.91053165 27.31447389 0.91053165 27.31447389 4.17578125 27.4296875 C9.04008894 26.88313607 11.43260339 25.0977971 15.1875 22.125 C25.26291755 14.43104478 25.26291755 14.43104478 32.62109375 14.625 C38.31993192 15.52333902 41.94312526 18.70532845 45.5 23.0625 C48.42657266 29.152935 48.05493787 35.88523818 45.9296875 42.16015625 C42.76285463 49.00432238 38.69117406 54.08883456 33 59 C29.25979502 57.31847927 27.43865652 55.30960527 25 52 C25.70125 51.525625 26.4025 51.05125 27.125 50.5625 C31.57386082 46.59721101 35.55757082 42.27944929 36.37890625 36.19140625 C36.37546309 33.76398048 36.27181517 31.41110124 36 29 C29.83707034 27.72395517 29.83707034 27.72395517 24 29.5625 C23.01 30.366875 22.02 31.17125 21 32 C19.4682063 33.05613144 17.92582147 34.09701248 16.375 35.125 C15.64023438 35.62257813 14.90546875 36.12015625 14.1484375 36.6328125 C9.00195102 39.90784935 5.09674307 40.85884554 -1 40 C-5.9710149 37.46759618 -9.49430567 34.01138866 -12 29 C-12.80426896 18.76895066 -10.61774568 11.78260398 -4 4 C-2.70128156 2.63292796 -1.38555866 1.27897723 0 0 Z " fill="#FBFCFD" transform="translate(93,231)"/>
<path d="M0 0 C2.60026695 1.3757001 5.11745796 2.84288547 7.62109375 4.38671875 C6.49657648 7.35865725 5.39815584 9.72112562 3.62109375 12.38671875 C0.62657677 11.74887321 -1.7891741 10.72165467 -4.50390625 9.32421875 C-10.90684276 6.43868486 -16.51799451 6.54251528 -23.19140625 8.51171875 C-28.70977279 11.75781671 -31.8675763 16.04783713 -33.87109375 22.046875 C-35.16426887 28.00542807 -35.62990677 34.72440435 -32.87890625 40.32421875 C-26.80112085 47.76950587 -20.55216364 49.04965462 -11.16015625 50.125 C-10.24234375 50.21136719 -9.32453125 50.29773438 -8.37890625 50.38671875 C-8.87390625 55.33671875 -8.87390625 55.33671875 -9.37890625 60.38671875 C-19.41440255 60.95476571 -29.20551027 58.37026147 -37.37890625 52.38671875 C-42.7926113 47.2889887 -46.98135108 42.01127583 -47.8125 34.43359375 C-47.83651448 33.00150282 -47.8370414 31.56886235 -47.81640625 30.13671875 C-47.80665771 29.38382568 -47.79690918 28.63093262 -47.78686523 27.85522461 C-47.45866387 17.51410011 -43.88104582 11.00695457 -36.76171875 3.5234375 C-26.23606161 -5.91514358 -12.30028139 -5.68098988 0 0 Z " fill="#FBFBFD" transform="translate(352.37890625,787.61328125)"/>
<path d="M0 0 C10.32345209 5.5076149 10.32345209 5.5076149 11.9296875 9.05078125 C12.04395812 12.21861673 10.05076107 13.76280611 8 16 C4.54886992 15.37109247 2.29089877 14.00848374 -0.5625 12 C-6.5756384 7.78167694 -11.75081756 7.26156104 -19 8 C-24.97191096 10.87536454 -29.19050114 15.67284377 -31.8125 21.75 C-33.77455464 27.6025287 -33.85198984 33.39391344 -31.9375 39.25 C-26.22277888 47.36121707 -19.45674363 49.58248659 -10 52 C-10.66 54.97 -11.32 57.94 -12 61 C-21.53338722 60.83563125 -30.36558818 57.0005257 -37.5703125 50.78125 C-44.05119114 43.79816305 -46.58177153 37.58151186 -46.2734375 28.046875 C-45.41078478 18.43445898 -41.59640878 11.06125638 -35 4 C-24.3307838 -4.04926074 -12.33732635 -5.44517799 0 0 Z " fill="#FBFCFD" transform="translate(625,75)"/>
<path d="M0 0 C0 3.3 0 6.6 0 10 C-1.051875 10.03867187 -1.051875 10.03867187 -2.125 10.078125 C-10.57368646 10.58320952 -16.72881698 12.02927965 -22.5 18.5 C-26.05819203 23.70640087 -25.80698744 28.92761928 -25 35 C-23.69274423 41.15615485 -21.64198708 46.53415574 -16.24609375 50.1875 C-11.63300135 52.78744249 -7.28833137 54.09569879 -2 53 C1.15973127 51.82324441 4.2099557 50.51867351 7.265625 49.09375 C10 48 10 48 14 48 C15.875 50.25 15.875 50.25 17 53 C16.12163465 55.93168695 15.26075761 56.84576102 12.609375 58.4140625 C11.66578125 58.81367187 10.7221875 59.21328125 9.75 59.625 C8.81671875 60.02976563 7.8834375 60.43453125 6.921875 60.8515625 C-1.56204547 64.18615156 -9.32525142 65.78523789 -18.265625 62.97265625 C-26.61542719 59.1858741 -31.72277031 54.36338575 -35.30859375 45.91796875 C-38.23818645 37.37247861 -39.84031447 28.93001715 -36.4375 20.3125 C-31.4059566 10.49485434 -23.65971673 4.61631728 -13.5 0.625 C-8.91878814 -0.19307355 -4.65192586 -0.12745002 0 0 Z " fill="#FBFBFD" transform="translate(335,49)"/>
<path d="M0 0 C2.96912847 2.27438166 4.92743251 4.89783377 6.5859375 8.21484375 C6.95958396 13.81954066 6.79454748 17.40192878 3.5859375 22.21484375 C-2.94516875 28.59751577 -7.98151708 30.38743139 -16.9140625 30.58984375 C-28.26633798 30.32115084 -28.26633798 30.32115084 -32.8984375 25.75 C-36.83682939 21.22527449 -37.77021204 18.36405189 -37.6953125 12.53125 C-37.13400148 7.90823005 -34.39855935 5.1993406 -31.2265625 2.02734375 C-22.18870468 -3.79705351 -9.55878298 -5.66670468 0 0 Z " fill="#92A1C3" transform="translate(833.4140625,379.78515625)"/>
<path d="M0 0 C4.69581692 1.97857454 9.05786502 4.90259208 11.37890625 9.5859375 C13.54744062 18.01458051 13.17400477 28.34765792 9 36 C4.34883721 42.3255814 4.34883721 42.3255814 1 44 C-4.17612405 44.51592086 -8.63098164 44.59738983 -13.4375 42.5 C-18.54273357 37.51928432 -21.1183867 31.03796002 -21.3125 23.9375 C-21.23483851 16.6081967 -19.25182961 10.71374337 -14.5625 5.0625 C-9.60348929 1.07110113 -6.56172306 -0.88972516 0 0 Z " fill="#92A1C3" transform="translate(482,43)"/>
<path d="M0 0 C5.48489019 2.4931319 8.71256474 7.12187025 12 12 C13.73093721 17.19281164 13.48706135 21.51318114 11.8125 26.625 C8.02288827 33.6815184 2.83800557 39.19055968 -5.00390625 41.62109375 C-11.1623848 42.79012001 -15.73600532 42.43771081 -21 39 C-24.08588464 36.42249833 -27.06417776 33.7466248 -30 31 C-28.68729086 28.09778672 -27.28101018 26.03287708 -25.0234375 23.79296875 C-24.14655273 22.91801758 -24.14655273 22.91801758 -23.25195312 22.02539062 C-22.63255859 21.41888672 -22.01316406 20.81238281 -21.375 20.1875 C-20.74271484 19.56166016 -20.11042969 18.93582031 -19.45898438 18.29101562 C-15.64847085 14.5430336 -11.76715162 10.92023833 -7.6875 7.46484375 C-4.98087516 5.11534302 -2.50199475 2.56454462 0 0 Z " fill="#92A1C3" transform="translate(721,156)"/>
<path d="M0 0 C5.86389987 3.92791766 10.237285 10.33147595 12.30859375 17.06640625 C13.32003506 22.43900848 13.3762754 26.38561176 10.609375 31.12109375 C6.32163943 37.27411542 1.86520862 40.83101162 -5.328125 42.99609375 C-6.09765625 41.71354167 -6.8671875 40.43098958 -7.63671875 39.1484375 C-8.13284668 38.32214844 -8.62897461 37.49585938 -9.14013672 36.64453125 C-10.22850486 34.82938558 -11.31475118 33.01296606 -12.39892578 31.1953125 C-14.95171446 26.92129681 -17.51977075 22.66475991 -20.19921875 18.46875 C-20.62468994 17.79271729 -21.05016113 17.11668457 -21.48852539 16.42016602 C-22.28334455 15.16107661 -23.09072147 13.90980614 -23.91186523 12.66772461 C-26.46112357 8.59043112 -26.46112357 8.59043112 -25.828125 5.76171875 C-19.81049156 -1.32153728 -8.4389288 -3.63893406 0 0 Z " fill="#92A1C3" transform="translate(254.328125,98.00390625)"/>
<path d="M0 0 C6.42233777 3.57218787 12.73063333 9.40822915 15 16.5 C16.13993755 24.0520863 14.45962526 29.37705504 10 35.5 C8.41446754 37.33407539 6.82030362 38.88773108 5 40.5 C1.55220914 38.99993609 -0.82360533 36.99590738 -3.5625 34.4375 C-8.03585005 30.33308604 -12.65318328 26.47096545 -17.37109375 22.65234375 C-20.99150687 19.68823137 -24.5070741 16.61260732 -28 13.5 C-24.98249056 7.13579827 -21.05750806 3.05549386 -15 -0.5 C-9.76136785 -2.24621072 -5.02375175 -2.24929319 0 0 Z " fill="#92A1C3" transform="translate(160,176.5)"/>
<path d="M0 0 C3.3 0.33 6.6 0.66 10 1 C8.4052615 16.11431261 5.653385 31.04400594 3 46 C-4.75 46.125 -4.75 46.125 -7 45 C-6.48517081 39.147205 -5.54642808 33.6702363 -4 28 C-4.60903168 27.94671036 -5.21806335 27.89342072 -5.84555054 27.83851624 C-11.86643827 27.27885399 -17.77678583 26.44027782 -23.7265625 25.37109375 C-24.60025482 25.21713638 -25.47394714 25.06317902 -26.37411499 24.90455627 C-29.12503533 24.41899549 -31.87501798 23.92834402 -34.625 23.4375 C-36.50645039 23.10447842 -38.38796035 22.77179315 -40.26953125 22.43945312 C-44.84705084 21.63018226 -49.42373769 20.81634923 -54 20 C-54.07142857 12.34821429 -54.07142857 12.34821429 -53 9 C-46.99119177 8.83527496 -41.47917736 9.42163521 -35.57421875 10.49609375 C-34.70481155 10.64909439 -33.83540436 10.80209503 -32.93965149 10.95973206 C-31.1163458 11.28189212 -29.29360988 11.60729226 -27.47143555 11.93579102 C-24.67944455 12.43895172 -21.88584475 12.9322305 -19.09179688 13.42382812 C-17.31500301 13.73901363 -15.53830665 14.05474938 -13.76171875 14.37109375 C-12.51016243 14.5930265 -12.51016243 14.5930265 -11.23332214 14.81944275 C-8.07249612 15.39087585 -5.05167215 15.98277595 -2 17 C-1.90912109 15.91332031 -1.90912109 15.91332031 -1.81640625 14.8046875 C-1.38516567 9.82883467 -0.92952359 4.91319609 0 0 Z " fill="#FBFBFD" transform="translate(840,485)"/>
<path d="M0 0 C0 2.97 0 5.94 0 9 C-4.14109254 9.72019001 -8.05007841 10.05897807 -12.2578125 10.03125 C-13.59416748 10.02448242 -13.59416748 10.02448242 -14.95751953 10.01757812 C-15.63153809 10.01177734 -16.30555664 10.00597656 -17 10 C-16.93941406 11.15411377 -16.87882812 12.30822754 -16.81640625 13.49731445 C-16.58990011 17.82659544 -16.36716777 22.15606411 -16.14550781 26.4855957 C-16.04951361 28.35055687 -15.9525299 30.2154674 -15.85449219 32.08032227 C-15.34796024 41.72768837 -14.85642334 51.33549593 -15 61 C-20.445 61.495 -20.445 61.495 -26 62 C-27.23664725 44.96978864 -28.26491548 28.08704865 -28 11 C-33.94 11 -39.88 11 -46 11 C-46 8.03 -46 5.06 -46 2 C-38.51965484 1.17653925 -31.08157929 0.71666241 -23.5625 0.4375 C-22.50740234 0.39431641 -21.45230469 0.35113281 -20.36523438 0.30664062 C-13.5733383 0.04332404 -6.79670361 -0.05321142 0 0 Z " fill="#FCFDFD" transform="translate(445,33)"/>
<path d="M0 0 C1.91727733 7.86621258 3.11760084 15.81719046 4.28710938 23.82080078 C4.62537884 26.12758347 4.97257214 28.43290958 5.3203125 30.73828125 C5.53960399 32.2238785 5.75837204 33.70955314 5.9765625 35.1953125 C6.07965729 35.87465851 6.18275208 36.55400452 6.28897095 37.25393677 C6.90470323 41.53506066 7.09178121 45.67787558 7 50 C7.57967529 49.90912109 8.15935059 49.81824219 8.7565918 49.72460938 C11.39963588 49.31250055 14.04354162 48.90619983 16.6875 48.5 C17.59951172 48.35691406 18.51152344 48.21382812 19.45117188 48.06640625 C20.78051758 47.86337891 20.78051758 47.86337891 22.13671875 47.65625 C22.94842529 47.53056641 23.76013184 47.40488281 24.59643555 47.27539062 C27.08533405 46.99022277 29.49706689 46.95325261 32 47 C33.1577506 50.47325181 33.06866652 53.36067448 33 57 C28.66812912 57.67640509 24.33430161 58.33936494 20 59 C18.77925781 59.19078125 17.55851562 59.3815625 16.30078125 59.578125 C10.13096789 60.51193459 4.24090378 61.24963615 -2 61 C-4.48609213 52.06628876 -5.93397168 43.19541591 -7.0625 34 C-7.38478447 31.43725601 -7.70898005 28.87475158 -8.03515625 26.3125 C-8.19129395 25.08273437 -8.34743164 23.85296875 -8.50830078 22.5859375 C-9.10111036 18.26260724 -9.83678286 13.97416833 -10.63061523 9.68359375 C-11.03304561 6.75992246 -11.06086737 3.94760373 -11 1 C-7.32589215 -0.17571451 -3.83070817 -0.07366746 0 0 Z " fill="#FBFBFD" transform="translate(489,797)"/>
<path d="M0 0 C7.625 0.875 7.625 0.875 11 2 C10.37318546 7.7808053 9.33860877 13.30585953 7.96875 18.953125 C7.77277222 19.77576843 7.57679443 20.59841187 7.37487793 21.44598389 C6.7539221 24.04829939 6.12704345 26.64914543 5.5 29.25 C5.0790389 31.01032388 4.65846246 32.7707398 4.23828125 34.53125 C1.31835307 46.74896662 1.31835307 46.74896662 0 52 C0.65484375 52.10957031 1.3096875 52.21914062 1.984375 52.33203125 C9.08277187 53.56522732 16.0313583 55.17574825 23 57 C22.125 64.75 22.125 64.75 21 67 C12.99841016 65.66258145 5.16965944 63.88620186 -2.6875 61.875 C-3.78255859 61.59785156 -4.87761719 61.32070312 -6.00585938 61.03515625 C-8.67142094 60.36003585 -11.33609112 59.68160672 -14 59 C-13.21165127 53.6032689 -11.90594672 48.3849588 -10.56640625 43.10546875 C-10.32840805 42.15867752 -10.09040985 41.21188629 -9.84519958 40.23640442 C-9.08654495 37.21953228 -8.32474552 34.20346668 -7.5625 31.1875 C-6.80422134 28.18214786 -6.04665555 25.17662068 -5.29051208 22.17073059 C-4.82103103 20.30490574 -4.35029327 18.43939648 -3.87806702 16.57426453 C-2.49100528 11.06779207 -1.20792989 5.54860962 0 0 Z " fill="#FBFBFD" transform="translate(524,42)"/>
<path d="M0 0 C2.43696317 2.09785745 3.43280943 4.48952389 4.65625 7.42578125 C4.65625 8.08578125 4.65625 8.74578125 4.65625 9.42578125 C-1.86158316 13.90968066 -9.0921047 17.34882677 -16.1875 20.8125 C-20.94538677 23.24443965 -25.52235126 25.96619303 -30.1171875 28.69140625 C-33.15599774 30.32485873 -36.04303205 31.44852941 -39.34375 32.42578125 C-38.07542312 34.98954889 -36.80418635 37.55180337 -35.53125 40.11328125 C-34.99661133 41.19512695 -34.99661133 41.19512695 -34.45117188 42.29882812 C-32.916915 45.38141763 -31.37373465 48.37651601 -29.58203125 51.3203125 C-28.34375 53.42578125 -28.34375 53.42578125 -28.34375 55.42578125 C-35.09375 59.42578125 -35.09375 59.42578125 -37.34375 59.42578125 C-37.75101318 58.64883911 -37.75101318 58.64883911 -38.16650391 57.85620117 C-38.97600416 56.31273804 -39.78602667 54.76954875 -40.59643555 53.2265625 C-41.51306065 51.48104478 -42.42858417 49.73494815 -43.34301758 47.98828125 C-45.31089354 44.23954583 -47.27850141 40.49682511 -49.37890625 36.8203125 C-49.92417969 35.86511719 -50.46945312 34.90992188 -51.03125 33.92578125 C-51.50949219 33.11109375 -51.98773437 32.29640625 -52.48046875 31.45703125 C-53.34375 29.42578125 -53.34375 29.42578125 -52.34375 26.42578125 C-50.20539195 25.07842878 -48.12362672 23.90846461 -45.87890625 22.765625 C-45.21799484 22.41901825 -44.55708344 22.0724115 -43.87614441 21.71530151 C-41.72413288 20.58883844 -39.5655062 19.47578522 -37.40625 18.36328125 C-34.47330164 16.83838035 -31.54317157 15.30811029 -28.61328125 13.77734375 C-27.53341446 13.21491722 -27.53341446 13.21491722 -26.43173218 12.64112854 C-22.35718436 10.51091005 -18.33424404 8.31791016 -14.35546875 6.01171875 C-13.52974365 5.53355713 -12.70401855 5.05539551 -11.85327148 4.56274414 C-10.3855308 3.70239911 -8.9248742 2.82981042 -7.47290039 1.94311523 C-2.9147583 -0.71411578 -2.9147583 -0.71411578 0 0 Z " fill="#FCFCFD" transform="translate(795.34375,235.57421875)"/>
<path d="M0 0 C3.63 0 7.26 0 11 0 C12.3253876 2.65077519 12.21396041 4.77095446 12.31640625 7.73828125 C12.35838135 8.9382373 12.40035645 10.13819336 12.44360352 11.37451172 C12.48283936 12.67404785 12.5220752 13.97358398 12.5625 15.3125 C12.59426834 16.30035492 12.59426834 16.30035492 12.62667847 17.3081665 C13.09153795 31.87347032 13.09685827 46.42821183 13 61 C9.37 61 5.74 61 2 61 C1.23454631 57.17273157 0.85526666 54.1261617 0.79467773 50.29174805 C0.77473251 49.17096359 0.75478729 48.05017914 0.73423767 46.89543152 C0.71752518 45.6963063 0.70081268 44.49718109 0.68359375 43.26171875 C0.66281265 42.02581497 0.64203156 40.78991119 0.62062073 39.51655579 C0.56640069 36.24347874 0.51612422 32.9703726 0.46777344 29.69720459 C0.4173843 26.3521174 0.36171184 23.00712276 0.30664062 19.66210938 C0.19964054 13.10814021 0.09832264 6.55410486 0 0 Z " fill="#FBFBFC" transform="translate(445,800)"/>
<path d="M0 0 C3.77475925 1.37464538 6.91158985 3.11048646 10.24609375 5.34375 C11.2419751 6.00850342 12.23785645 6.67325684 13.26391602 7.3581543 C14.31119873 8.06496338 15.35848145 8.77177246 16.4375 9.5 C17.5112085 10.22034424 18.58491699 10.94068848 19.69116211 11.68286133 C27.56510332 16.98419333 35.32682706 22.41293868 43 28 C45.33047048 29.6707134 47.66506663 31.33552191 50 33 C49.17707746 36.98467756 47.33946269 39.67947232 45 43 C42.27135853 41.68890816 39.74989857 40.24887932 37.234375 38.56640625 C36.51709229 38.0878418 35.79980957 37.60927734 35.06079102 37.11621094 C34.29822998 36.60348633 33.53566895 36.09076172 32.75 35.5625 C31.5587854 34.76440918 31.5587854 34.76440918 30.34350586 33.95019531 C23.12503552 29.10392824 15.93449289 24.21851777 8.80126953 19.24755859 C7.06257659 18.04334052 5.31198953 16.85844594 3.55859375 15.67578125 C2.54925781 14.97839844 1.53992188 14.28101563 0.5 13.5625 C-0.3765625 12.96566406 -1.253125 12.36882812 -2.15625 11.75390625 C-3.06890625 10.88572266 -3.06890625 10.88572266 -4 10 C-4 5.28093812 -2.71245796 3.72962969 0 0 Z " fill="#FCFCFD" transform="translate(107,207)"/>
<path d="M0 0 C2.97 0.66 5.94 1.32 9 2 C10.74114884 7.07908624 9.01548053 10.74699169 7.2109375 15.52734375 C6.76048569 16.76539513 6.76048569 16.76539513 6.30093384 18.02845764 C5.33719361 20.6692166 4.35652266 23.30330541 3.375 25.9375 C2.73713254 27.67470886 2.10040235 29.41233574 1.46484375 31.15039062 C0.22926884 34.52538279 -1.01228053 37.89807458 -2.25878906 41.26904297 C-4.55670083 47.49464833 -6.78540711 53.74432582 -9 60 C-17.75 58.125 -17.75 58.125 -20 57 C-19.56766547 55.33198595 -19.12880988 53.66566192 -18.6875 52 C-18.44386719 51.071875 -18.20023438 50.14375 -17.94921875 49.1875 C-17.03366822 46.11305873 -15.96321474 43.15836792 -14.81860352 40.16455078 C-13.34983927 36.28084551 -11.99392396 32.35727084 -10.625 28.4375 C-10.32118408 27.57068604 -10.01736816 26.70387207 -9.7043457 25.81079102 C-8.27130325 21.70716432 -6.85721464 17.59941838 -5.50390625 13.46875 C-5.27944824 12.78369385 -5.05499023 12.0986377 -4.82373047 11.39282227 C-4.22534255 9.55380123 -3.63391881 7.71251833 -3.04296875 5.87109375 C-2 3 -2 3 0 0 Z " fill="#FCFCFD" transform="translate(571,55)"/>
<path d="M0 0 C19.8 0 39.6 0 60 0 C60 3.63 60 7.26 60 11 C40.2 11 20.4 11 0 11 C0 7.37 0 3.74 0 0 Z " fill="#FDFDFE" transform="translate(33,440)"/>
<path d="M0 0 C3.88161929 0.32895079 5.63849699 0.96041197 8.6875 3.3125 C11.21422455 7.10258682 11.13091245 8.80447342 10.6875 13.3125 C9.3675 15.9525 8.0475 18.5925 6.6875 21.3125 C-1.7275 18.3425 -1.7275 18.3425 -10.3125 15.3125 C-9.37041899 8.71793296 -7.75040428 0.73117022 0 0 Z " fill="#94A3C5" transform="translate(76.3125,290.6875)"/>
<path d="M0 0 C6.27 0 12.54 0 19 0 C19.28020134 11.6283557 19.28020134 11.6283557 17 16 C13.33091443 18.44605705 10.26381231 18.83946402 6 18 C3.30894802 15.82425584 1.54467072 14.08934144 0 11 C-0.1377685 7.32984725 -0.04271961 3.67388652 0 0 Z " fill="#92A1C3" transform="translate(824,445)"/>
<path d="M0 0 C2.72451404 1.36225702 3.08525087 2.88341786 4.3828125 5.62109375 C4.82753906 6.55630859 5.27226562 7.49152344 5.73046875 8.45507812 C6.19066406 9.43927734 6.65085937 10.42347656 7.125 11.4375 C7.59292969 12.41783203 8.06085938 13.39816406 8.54296875 14.40820312 C12 21.73045736 12 21.73045736 12 24 C7.38 24.66 2.76 25.32 -2 26 C-1.34 17.42 -0.68 8.84 0 0 Z " fill="#96A4C5" transform="translate(372,49)"/>
<path d="M0 0 C7 4.66666667 14 9.33333333 21 14 C19.78934835 17.63195496 18.46308874 18.42896192 15.4375 20.6875 C14.61121094 21.31011719 13.78492188 21.93273437 12.93359375 22.57421875 C11.97646484 23.27998047 11.97646484 23.27998047 11 24 C8.90616203 21.35448546 7.3235815 18.82407712 5.95703125 15.7421875 C5.60576172 14.95199219 5.25449219 14.16179687 4.89257812 13.34765625 C4.53615234 12.53167969 4.17972656 11.71570313 3.8125 10.875 C3.44447266 10.05128906 3.07644531 9.22757813 2.69726562 8.37890625 C0 2.26376971 0 2.26376971 0 0 Z " fill="#95A3C5" transform="translate(186,136)"/>
<path d="M0 0 C1.18878413 3.56635238 0.72013686 4.60379515 -0.43359375 8.10546875 C-0.9121582 9.57983398 -0.9121582 9.57983398 -1.40039062 11.08398438 C-1.74263672 12.10814453 -2.08488281 13.13230469 -2.4375 14.1875 C-2.77587891 15.22326172 -3.11425781 16.25902344 -3.46289062 17.32617188 C-4.30070748 19.8868234 -5.14668356 22.4444802 -6 25 C-7.84121215 23.90902202 -9.67281256 22.80180749 -11.5 21.6875 C-12.5209375 21.07261719 -13.541875 20.45773438 -14.59375 19.82421875 C-15.3878125 19.22222656 -16.181875 18.62023437 -17 18 C-17 15 -17 15 -15.76245117 13.60546875 C-15.19502197 13.13753906 -14.62759277 12.66960937 -14.04296875 12.1875 C-13.42486328 11.66929688 -12.80675781 11.15109375 -12.16992188 10.6171875 C-11.18862305 9.81667969 -11.18862305 9.81667969 -10.1875 9 C-8.90933167 7.9384921 -7.63196089 6.87602298 -6.35546875 5.8125 C-5.78465576 5.34457031 -5.21384277 4.87664062 -4.62573242 4.39453125 C-3.00029957 3.00025697 -1.49397199 1.53326472 0 0 Z " fill="#95A3C5" transform="translate(663,111)"/>
<path d="M0 0 C1.77503906 0.03480469 1.77503906 0.03480469 3.5859375 0.0703125 C5.36871094 0.09738281 5.36871094 0.09738281 7.1875 0.125 C8.10273438 0.14820312 9.01796875 0.17140625 9.9609375 0.1953125 C8.31252732 5.14054303 4.46630732 7.76984568 -0.0390625 10.1953125 C-3.79150153 10.75408391 -7.27937458 10.63804211 -11.0390625 10.1953125 C-10.08273251 8.90216189 -9.12392399 7.61084397 -8.1640625 6.3203125 C-7.63039063 5.60101562 -7.09671875 4.88171875 -6.546875 4.140625 C-3.51244248 0.22573538 -3.51244248 0.22573538 0 0 Z " fill="#F9F9FB" transform="translate(486.0390625,21.8046875)"/>
</svg>
